<svg width="321" height="310" viewBox="0 0 321 310" fill="none" xmlns="http://www.w3.org/2000/svg">
<path d="M43.6924 271.057L49.4988 309.217H83.2325L91.0637 271.613L43.6924 271.057Z" fill="#EBEBEB"/>
<path d="M86.3484 295.525C86.3484 295.635 77.7005 295.724 67.0416 295.724C56.3828 295.724 47.7349 295.635 47.7349 295.525C47.7349 295.415 56.3759 295.326 67.0416 295.326C77.7074 295.326 86.3484 295.401 86.3484 295.525Z" fill="#FAFAFA"/>
<path d="M86.4789 293.637C86.4789 293.747 77.7761 293.836 67.0417 293.836C56.3073 293.836 47.6045 293.747 47.6045 293.637C47.6045 293.527 56.3073 293.438 67.0417 293.438C77.7761 293.438 86.4789 293.527 86.4789 293.637Z" fill="#FAFAFA"/>
<path d="M86.4105 291.516C86.4105 291.626 77.7077 291.715 66.9733 291.715C56.2389 291.715 47.5361 291.626 47.5361 291.516C47.5361 291.407 56.2389 291.317 66.9733 291.317C77.7077 291.317 86.4105 291.407 86.4105 291.516Z" fill="#FAFAFA"/>
<path d="M53.3769 307.035C52.8984 305.465 52.5518 303.858 52.3405 302.23C51.9928 300.628 51.777 299.001 51.6953 297.364C52.1699 298.935 52.5164 300.542 52.7317 302.168C53.0713 303.772 53.287 305.398 53.3769 307.035Z" fill="#FAFAFA"/>
<path d="M55.6691 306.63C55.3237 303.51 55.1107 300.378 55.0308 297.24C55.3951 298.776 55.6021 300.344 55.6485 301.921C55.8222 303.486 55.8291 305.064 55.6691 306.63Z" fill="#FAFAFA"/>
<path d="M59.8488 306.63C59.0563 303.464 58.6757 300.209 58.7163 296.945C59.0358 298.532 59.265 300.137 59.4027 301.75C59.6772 304.447 59.9586 306.609 59.8488 306.63Z" fill="#FAFAFA"/>
<path d="M62.7863 306.836C62.4679 305.226 62.3115 303.589 62.3196 301.949C62.1997 300.312 62.2503 298.668 62.4706 297.042C62.6467 298.667 62.7292 300.301 62.7177 301.935C62.8335 303.566 62.8564 305.202 62.7863 306.836Z" fill="#FAFAFA"/>
<path d="M67.982 306.63C67.7365 305.098 67.6194 303.548 67.6319 301.997C67.512 300.45 67.5258 298.895 67.6731 297.35C68.0367 300.429 68.14 303.533 67.982 306.63Z" fill="#FAFAFA"/>
<path d="M71.7846 306.836C71.596 305.242 71.5409 303.634 71.6199 302.031C71.5697 300.426 71.65 298.819 71.8601 297.227C72.044 298.821 72.0968 300.428 72.0179 302.031C72.0678 303.636 71.9897 305.243 71.7846 306.836Z" fill="#FAFAFA"/>
<path d="M75.3398 306.321C75.304 304.646 75.4004 302.97 75.6281 301.31C75.7302 299.639 75.9597 297.978 76.3144 296.341C76.2533 299.688 75.9298 303.025 75.3467 306.321H75.3398Z" fill="#FAFAFA"/>
<path d="M79.9312 305.82C80.08 302.948 80.6943 300.121 81.75 297.446C81.5434 298.86 81.2546 300.26 80.8852 301.64C80.6425 303.049 80.324 304.445 79.9312 305.82Z" fill="#FAFAFA"/>
<path d="M76.685 195.765L76.6438 195.957C76.5957 196.101 76.5477 196.273 76.4859 196.492L75.8408 198.551C75.5525 199.444 75.2093 200.535 74.8524 201.818C74.4955 203.102 74.0357 204.564 73.6376 206.17C73.2395 207.776 72.7454 209.56 72.3198 211.482C71.8943 213.404 71.4619 215.456 71.0227 217.625C70.2128 221.976 69.4715 226.788 68.9636 231.866C68.4557 236.945 68.2773 241.812 68.1812 246.232C68.1812 248.448 68.1812 250.549 68.2361 252.518C68.291 254.488 68.3802 256.314 68.4763 258.009C68.5724 259.704 68.7097 261.194 68.8126 262.518C68.9156 263.843 69.0254 264.982 69.1352 265.916C69.245 266.849 69.3068 267.536 69.3548 268.057C69.3548 268.284 69.396 268.469 69.4029 268.62C69.4134 268.684 69.4134 268.749 69.4029 268.812C69.38 268.75 69.3661 268.686 69.3617 268.62C69.3617 268.476 69.3068 268.291 69.2725 268.071C69.197 267.549 69.1009 266.836 68.9774 265.93C68.8538 265.024 68.7028 263.871 68.5861 262.539C68.4695 261.208 68.2841 259.704 68.1881 258.03C68.092 256.355 67.9547 254.523 67.9067 252.539C67.8586 250.556 67.8174 248.462 67.8037 246.245C67.8518 241.812 68.0714 236.939 68.5656 231.832C69.0597 226.726 69.8353 221.921 70.6658 217.563C71.1187 215.394 71.5237 213.322 72.0384 211.386C72.5532 209.451 72.9513 207.687 73.4111 206.074C73.871 204.461 74.3034 203.006 74.6877 201.729C75.0721 200.453 75.429 199.368 75.7447 198.483C76.0604 197.597 76.28 196.945 76.431 196.424C76.5065 196.211 76.5683 196.039 76.6232 195.902C76.6387 195.854 76.6594 195.808 76.685 195.765Z" fill="#EBEBEB"/>
<path d="M70.5899 219.396C71.519 216.644 73.3749 214.301 75.8404 212.766C76.6709 212.251 77.7279 211.832 78.5858 212.258C79.7595 212.827 79.8555 214.481 79.5055 215.744C78.8984 217.88 77.5441 219.726 75.6894 220.947C74.0439 222.164 71.9841 222.682 69.9585 222.388" fill="#EBEBEB"/>
<path d="M68.5449 235.346C69.4165 232.052 72.0452 227.371 74.77 225.333C75.1873 224.991 75.6677 224.734 76.1838 224.578C76.4444 224.505 76.7188 224.497 76.9831 224.554C77.2474 224.612 77.4938 224.733 77.7007 224.907C78.2566 225.442 78.2017 226.341 78.037 227.09C77.4781 229.492 76.2614 231.692 74.5232 233.442C72.7849 235.193 70.5936 236.425 68.1948 237" fill="#EBEBEB"/>
<path d="M67.9819 249.389C69.3341 246.243 71.5022 243.516 74.262 241.489C74.5569 241.22 74.9023 241.012 75.2782 240.878C75.654 240.744 76.0528 240.686 76.4514 240.707C77.6456 240.926 78.1878 242.381 78.078 243.589C77.8652 246.074 75.9641 248.064 74.008 249.608C71.9009 251.269 68.1947 252.594 68.1947 252.594" fill="#EBEBEB"/>
<path d="M68.2979 259.485C69.6116 257.088 71.437 255.009 73.6445 253.397C74.1177 253.048 74.6649 252.813 75.2436 252.711C75.5351 252.658 75.8356 252.685 76.1126 252.79C76.3896 252.896 76.6326 253.074 76.8153 253.308C77.3507 254.097 76.8154 255.161 76.2663 255.916C74.3852 258.545 71.7137 260.505 68.641 261.51" fill="#EBEBEB"/>
<path d="M68.0301 255.387C65.7301 252.56 63.1728 249.952 60.3912 247.597C59.9519 247.234 59.4097 246.849 58.8675 247.021C58.6661 247.108 58.4941 247.252 58.3724 247.434C58.2506 247.617 58.1842 247.831 58.1811 248.05C58.1729 248.493 58.2718 248.931 58.4694 249.327C59.3823 251.358 60.7413 253.157 62.4453 254.59C64.1492 256.023 66.1544 257.053 68.3115 257.604" fill="#EBEBEB"/>
<path d="M68.277 242.244L62.2715 234.928C61.746 234.189 61.0844 233.558 60.3223 233.068C59.9362 232.834 59.4936 232.71 59.0422 232.71C58.5909 232.71 58.1483 232.834 57.7622 233.068C57.415 233.355 57.1541 233.733 57.0087 234.159C56.8633 234.586 56.8391 235.044 56.9386 235.484C57.1582 236.353 57.5581 237.167 58.1123 237.872C59.2806 239.669 60.7613 241.243 62.4843 242.519C64.2481 243.733 65.8542 244.523 67.975 244.207" fill="#EBEBEB"/>
<path d="M69.1079 227.453C67.9316 223.95 65.8475 220.822 63.0681 218.387C62.6345 217.947 62.0922 217.629 61.4963 217.467C60.2884 217.234 59.1285 218.243 58.751 219.402C58.5621 220.067 58.5134 220.763 58.6079 221.447C58.7024 222.131 58.9381 222.788 59.3001 223.376C60.0357 224.549 60.9968 225.564 62.1278 226.362C64.1489 227.909 66.403 229.126 68.8059 229.965" fill="#EBEBEB"/>
<path d="M71.5097 214.269C70.9263 210.027 68.7163 206.493 66.1562 203.061C65.6209 202.333 64.8659 201.571 63.9736 201.688C63.6919 201.749 63.4299 201.879 63.2117 202.068C62.9935 202.256 62.826 202.496 62.7245 202.766C62.5243 203.307 62.4424 203.885 62.4843 204.461C62.5951 207.032 63.4607 209.514 64.973 211.596C66.4853 213.678 68.5773 215.269 70.9881 216.17" fill="#EBEBEB"/>
<path d="M73.1913 207.536C72.9127 205.36 72.8392 203.163 72.9717 200.974C73.1061 198.772 73.8603 196.652 75.1474 194.859C75.6989 194.088 76.4548 193.487 77.3299 193.123C77.769 192.946 78.2462 192.887 78.7152 192.949C79.1842 193.012 79.6291 193.194 80.0067 193.479C80.3255 193.778 80.573 194.145 80.731 194.553C80.889 194.96 80.9534 195.398 80.9195 195.834C80.842 196.705 80.6096 197.556 80.2332 198.346C78.634 202.196 75.971 206.458 73.1844 207.536" fill="#EBEBEB"/>
<path d="M47.0348 212.594C47.0511 212.772 47.0511 212.951 47.0348 213.129C47.0348 213.521 47.0348 214.035 47.0348 214.667C47.0348 215.298 47.0348 216.156 47.076 217.103C47.1172 218.05 47.076 219.162 47.1858 220.329C47.2956 222.711 47.5221 225.552 47.8722 228.689C48.2222 231.825 48.7987 235.25 49.5331 238.819C50.2675 242.388 51.1803 245.744 52.0863 248.771C52.9923 251.798 53.9394 254.481 54.8317 256.705C55.2435 257.831 55.669 258.826 56.019 259.704C56.3691 260.583 56.7054 261.338 56.9662 261.949C57.227 262.56 57.4123 263.006 57.5702 263.37C57.6475 263.53 57.7096 263.698 57.7555 263.871C57.6519 263.722 57.5645 263.564 57.4947 263.397L56.8083 262.024C56.5201 261.42 56.17 260.652 55.8063 259.807C55.4425 258.963 54.9827 257.941 54.5571 256.822C53.658 254.605 52.704 251.914 51.75 248.888C50.796 245.861 49.9243 242.491 49.1625 238.915C48.4007 235.339 47.9408 231.873 47.6045 228.73C47.2682 225.586 47.0623 222.731 46.9937 220.336C46.9319 219.142 46.9456 218.057 46.9319 217.11C46.9182 216.163 46.9319 215.339 46.9319 214.667C46.9319 213.994 46.9731 213.521 46.9868 213.129C46.9817 212.95 46.9978 212.77 47.0348 212.594Z" fill="#E0E0E0"/>
<path d="M47.9751 229.986C48.0136 227.916 48.7706 225.924 50.1165 224.351C50.3119 224.059 50.5765 223.82 50.8866 223.655C51.1966 223.489 51.5427 223.403 51.8941 223.404C52.8207 223.541 53.2668 224.646 53.2668 225.58C53.3151 227.165 52.7913 228.714 51.7912 229.945C50.9283 231.122 49.6408 231.917 48.2016 232.162" fill="#E0E0E0"/>
<path d="M50.0136 241.304C49.897 238.874 50.7 235.127 52.0727 233.15C52.282 232.824 52.5551 232.544 52.8757 232.326C53.0378 232.221 53.223 232.157 53.4155 232.139C53.608 232.121 53.8019 232.15 53.9807 232.223C54.2026 232.386 54.3812 232.601 54.5008 232.848C54.6205 233.096 54.6776 233.369 54.667 233.644C54.8027 235.4 54.4469 237.159 53.6396 238.723C52.8323 240.288 51.6053 241.598 50.096 242.505" fill="#E0E0E0"/>
<path d="M52.6494 250.974C52.8943 248.54 53.7852 246.215 55.2301 244.241C55.3699 243.997 55.5564 243.783 55.779 243.611C56.0016 243.439 56.2558 243.313 56.5272 243.239C57.3852 243.129 58.0647 244.008 58.25 244.852C58.6412 246.588 57.7764 248.352 56.7743 249.821C55.8161 251.056 54.7018 252.161 53.4593 253.109" fill="#E0E0E0"/>
<path d="M55.0376 257.776C55.414 255.861 56.2111 254.054 57.3712 252.484C57.6143 252.139 57.9337 251.855 58.3046 251.654C58.4919 251.554 58.703 251.508 58.9147 251.52C59.1265 251.532 59.3309 251.602 59.5057 251.722C60.041 252.141 59.9243 252.972 59.691 253.617C58.9748 255.811 57.578 257.72 55.7033 259.066" fill="#E0E0E0"/>
<path d="M53.9738 255.03C51.8032 253.603 49.5057 252.378 47.1104 251.372C46.9371 251.267 46.7405 251.206 46.5382 251.196C46.3358 251.185 46.1339 251.224 45.9504 251.31C45.8305 251.413 45.7427 251.547 45.6977 251.698C45.6526 251.849 45.6522 252.01 45.6965 252.162C45.7889 252.461 45.9485 252.736 46.1632 252.965C47.2222 254.151 48.5347 255.083 50.0032 255.693C51.4718 256.302 53.0588 256.573 54.6464 256.485" fill="#E0E0E0"/>
<path d="M51.3178 246.046L45.6486 242.354C45.1318 241.969 44.5474 241.685 43.9259 241.516C43.6137 241.436 43.2855 241.443 42.977 241.536C42.6684 241.629 42.3913 241.805 42.1757 242.045C42.0007 242.316 41.9042 242.63 41.8969 242.952C41.8897 243.274 41.9719 243.592 42.1345 243.871C42.4753 244.413 42.9238 244.881 43.4523 245.243C44.633 246.219 45.9821 246.97 47.4331 247.46C48.895 247.913 50.1784 248.098 51.5511 247.46" fill="#E0E0E0"/>
<path d="M48.7027 235.813C47.1457 233.68 45.0526 231.997 42.6355 230.933C42.244 230.73 41.8063 230.633 41.3657 230.652C40.9377 230.749 40.5571 230.993 40.2901 231.342C40.0231 231.69 39.8865 232.121 39.9038 232.56C39.922 233.049 40.0404 233.529 40.2517 233.971C40.4631 234.412 40.7628 234.806 41.1324 235.127C41.8849 235.766 42.7576 236.249 43.6993 236.547C45.4079 237.164 47.2028 237.509 49.0184 237.57" fill="#E0E0E0"/>
<path d="M47.4947 226.3C46.1838 223.555 43.9188 221.606 41.4412 219.821C41.2093 219.596 40.9225 219.436 40.6094 219.356C40.2963 219.277 39.9677 219.281 39.6567 219.368C39.4797 219.472 39.3308 219.618 39.2232 219.792C39.1155 219.967 39.0522 220.165 39.039 220.37C39.0193 220.782 39.0872 221.194 39.238 221.578C39.8702 223.304 40.9957 224.807 42.4746 225.899C43.9535 226.991 45.7206 227.625 47.5565 227.721" fill="#E0E0E0"/>
<path d="M47.186 221.352C46.5278 219.931 46.0061 218.451 45.628 216.932C45.2456 215.405 45.3027 213.801 45.7927 212.306C46.0049 211.659 46.395 211.086 46.9183 210.652C47.18 210.438 47.4922 210.294 47.825 210.236C48.1579 210.177 48.5003 210.204 48.8195 210.315C49.0957 210.448 49.3395 210.64 49.5339 210.877C49.7283 211.114 49.8686 211.391 49.9451 211.688C50.0824 212.298 50.1103 212.928 50.0274 213.548C49.7666 216.513 48.8675 219.986 47.1997 221.317" fill="#E0E0E0"/>
<path d="M89.6843 212.223C89.7169 212.4 89.733 212.579 89.7324 212.759C89.7324 213.15 89.7324 213.658 89.7873 214.296C89.8422 214.934 89.8285 215.785 89.7873 216.74C89.7461 217.694 89.7873 218.799 89.7324 219.965C89.6637 222.361 89.4578 225.209 89.1147 228.359C88.7715 231.51 88.2224 234.948 87.4812 238.531C86.7399 242.114 85.8134 245.477 84.8868 248.51C83.9603 251.544 82.9788 254.221 82.0797 256.437C81.6541 257.556 81.208 258.545 80.8374 259.423C80.4668 260.302 80.151 261.043 79.8285 261.64C79.5059 262.237 79.3274 262.676 79.1421 263.013C79.0682 263.174 78.9833 263.33 78.8882 263.479C78.93 263.306 78.9922 263.137 79.0735 262.978C79.2245 262.615 79.4235 262.148 79.6775 261.558C79.9314 260.967 80.2677 260.185 80.6178 259.313C80.9678 258.442 81.4002 257.44 81.8051 256.314C82.6699 254.09 83.5965 251.4 84.5505 248.38C85.5045 245.36 86.3418 241.997 87.0968 238.428C87.8518 234.859 88.3734 231.427 88.7578 228.297C89.1421 225.168 89.3549 222.326 89.4441 219.938C89.5196 218.744 89.5265 217.666 89.5608 216.712C89.5951 215.758 89.602 214.948 89.5608 214.276C89.5196 213.603 89.5608 213.129 89.5608 212.738C89.5837 212.563 89.6251 212.39 89.6843 212.223Z" fill="#EBEBEB"/>
<path d="M88.744 229.636C88.7036 227.565 87.9441 225.573 86.5957 224.001C86.3994 223.71 86.1347 223.471 85.8248 223.306C85.5149 223.141 85.1692 223.055 84.8181 223.054C83.8915 223.191 83.4454 224.296 83.4454 225.23C83.4015 226.815 83.9275 228.364 84.9279 229.595C85.7862 230.777 87.0759 231.574 88.5175 231.812" fill="#EBEBEB"/>
<path d="M86.7263 240.919C86.8361 238.49 86.0399 234.742 84.6672 232.766C84.4579 232.44 84.1847 232.16 83.8642 231.942C83.7034 231.837 83.5193 231.772 83.3279 231.754C83.1365 231.736 82.9437 231.766 82.7661 231.839C82.5433 232.001 82.364 232.215 82.2443 232.463C82.1245 232.711 82.068 232.985 82.0797 233.26C81.941 235.015 82.2947 236.774 83.101 238.34C83.9073 239.905 85.1342 241.214 86.6439 242.12" fill="#EBEBEB"/>
<path d="M84.0631 250.604C83.8167 248.171 82.9284 245.847 81.4893 243.871C81.3457 243.624 81.1548 243.409 80.9274 243.237C80.7 243.065 80.4407 242.94 80.1646 242.868C79.3067 242.759 78.6272 243.637 78.4351 244.481C78.0507 246.218 78.9155 247.982 79.9107 249.45C80.8689 250.685 81.9832 251.79 83.2257 252.738" fill="#EBEBEB"/>
<path d="M81.6745 257.412C81.2989 255.496 80.5044 253.687 79.3478 252.114C79.1027 251.768 78.7809 251.484 78.4075 251.283C78.2202 251.184 78.0092 251.137 77.7974 251.15C77.5856 251.162 77.3812 251.232 77.2064 251.352C76.678 251.77 76.7946 252.601 77.0211 253.246C77.7373 255.44 79.1341 257.349 81.0088 258.696" fill="#EBEBEB"/>
<path d="M82.7385 254.673C84.9108 253.249 87.208 252.024 89.6019 251.015C89.7758 250.912 89.9722 250.852 90.1743 250.841C90.3763 250.831 90.578 250.869 90.7619 250.954C90.8844 251.054 90.9746 251.188 91.021 251.34C91.0674 251.491 91.068 251.653 91.0227 251.805C90.9261 252.104 90.7644 252.378 90.5491 252.608C89.4907 253.794 88.1784 254.727 86.7097 255.337C85.2409 255.947 83.6537 256.217 82.0659 256.129" fill="#EBEBEB"/>
<path d="M85.4013 245.676L91.0637 241.983C91.5813 241.6 92.1654 241.316 92.7864 241.146C93.0985 241.066 93.4267 241.072 93.7353 241.166C94.0438 241.259 94.3209 241.435 94.5365 241.674C94.713 241.944 94.8104 242.259 94.8177 242.581C94.825 242.904 94.7419 243.222 94.5777 243.5C94.2406 244.046 93.7914 244.514 93.2599 244.873C92.0793 245.846 90.7332 246.599 89.286 247.096C87.8241 247.543 86.5407 247.735 85.168 247.096" fill="#EBEBEB"/>
<path d="M88.0164 235.429C89.5739 233.296 91.6669 231.613 94.0837 230.549C94.4746 230.344 94.9127 230.247 95.3534 230.267C95.7802 230.366 96.1591 230.611 96.4248 230.959C96.6904 231.307 96.8261 231.738 96.8085 232.175C96.7964 232.669 96.6808 233.154 96.4692 233.6C96.2576 234.045 95.9546 234.442 95.5799 234.763C94.828 235.401 93.9583 235.886 93.0199 236.19C91.3083 236.805 89.5113 237.147 87.6938 237.206" fill="#EBEBEB"/>
<path d="M89.2174 225.93C90.5283 223.184 92.7932 221.242 95.2778 219.45C95.7994 219.073 96.4789 218.716 97.0554 218.998C97.243 219.099 97.4014 219.247 97.5155 219.427C97.6296 219.608 97.6957 219.814 97.7074 220.027C97.7213 220.439 97.6513 220.85 97.5015 221.235C96.8721 222.962 95.7483 224.465 94.2702 225.557C92.7922 226.65 91.0254 227.283 89.1899 227.378" fill="#EBEBEB"/>
<path d="M89.5261 220.988C90.1816 219.565 90.7054 218.086 91.091 216.568C91.468 215.038 91.4085 213.433 90.9194 211.935C90.711 211.29 90.3257 210.717 89.8075 210.281C89.5475 210.066 89.2361 209.923 88.904 209.865C88.5718 209.808 88.2304 209.837 87.9132 209.952C87.6338 210.081 87.387 210.272 87.191 210.509C86.995 210.747 86.8548 211.025 86.7807 211.324C86.6476 211.935 86.6198 212.564 86.6984 213.184C86.9592 216.149 87.8583 219.622 89.5261 220.96" fill="#EBEBEB"/>
<path d="M39.8213 263.5V270.645C39.8213 271.014 39.8941 271.38 40.0356 271.721C40.1771 272.062 40.3845 272.371 40.6459 272.632C40.9073 272.893 41.2176 273.1 41.5589 273.24C41.9003 273.381 42.2661 273.453 42.6353 273.452H91.4822C92.2267 273.452 92.9407 273.156 93.4672 272.63C93.9936 272.103 94.2893 271.389 94.2893 270.645V263.5H39.8213Z" fill="#EBEBEB"/>
<path d="M44.0562 273.452L44.4611 275.724L89.5331 278.936L90.6793 273.452H44.0562Z" fill="#E0E0E0"/>
<path d="M52.1617 99.9721L41.8666 95.7442C41.8666 95.7442 38.3113 104.385 29.2722 100.844C27.5165 100.197 26.0066 99.0174 24.9533 97.4708C23.9001 95.9241 23.356 94.0872 23.3971 92.2164C23.407 90.6446 23.789 89.0974 24.5119 87.7016C25.2349 86.3058 26.2782 85.1011 27.5564 84.1862C30.4802 82.0243 35.4973 80.6927 41.9284 84.7696L51.3518 61.8595L41.1734 57.6729L35.5866 71.2624C35.5866 71.2624 19.8007 69.0867 13.3422 84.8108C7.16516 99.8554 19.7389 109.114 26.7602 112.004C31.1871 113.816 44.8934 118.208 52.1617 99.9721Z" fill="#F5F5F5"/>
<path d="M46.9889 43.2063L43.0244 52.8486L53.3523 57.0949L57.3168 47.4526L46.9889 43.2063Z" fill="#F5F5F5"/>
<path d="M48.6753 98.5448L38.3802 94.317C38.3802 94.317 34.8249 102.951 25.7858 99.4165C24.0306 98.7685 22.5213 97.5891 21.4682 96.0426C20.4151 94.4962 19.8706 92.6597 19.9107 90.7892C19.9208 89.2166 20.3036 87.6689 21.0278 86.2729C21.752 84.877 22.7969 83.6728 24.0768 82.759C27.0006 80.597 31.9011 79.5538 38.3321 83.6306L47.8723 60.4323L37.7007 56.2456L32.1139 69.8352C32.1139 69.8352 16.328 67.6595 9.85581 83.363C3.67873 98.4076 15.7309 107.467 21.5236 109.821C25.9231 111.64 41.4275 116.753 48.6753 98.5448Z" fill="#E0E0E0"/>
<path d="M43.5069 41.7551L39.5425 51.3975L49.8704 55.6438L53.8348 46.0014L43.5069 41.7551Z" fill="#E0E0E0"/>
<path d="M295.628 276.053L289.252 276.582C289.252 276.582 289.698 281.935 284.138 282.498C283.068 282.624 281.986 282.414 281.04 281.898C280.094 281.381 279.333 280.584 278.86 279.615C278.451 278.809 278.238 277.918 278.238 277.014C278.238 276.11 278.451 275.219 278.86 274.413C279.794 272.539 282.018 270.542 286.376 270.94L285.202 256.733L278.888 257.261L279.574 265.683C279.574 265.683 270.919 268.709 271.729 278.455C272.505 287.783 281.379 289.231 285.731 288.867C288.51 288.661 296.685 287.289 295.628 276.053Z" fill="#F5F5F5"/>
<path d="M284.781 249.503L278.356 250.017L278.836 256.016L285.261 255.502L284.781 249.503Z" fill="#F5F5F5"/>
<path d="M293.466 276.218L287.083 276.753C287.083 276.753 287.529 282.107 281.97 282.663C280.901 282.792 279.819 282.584 278.874 282.069C277.929 281.553 277.168 280.755 276.699 279.787C276.289 278.981 276.076 278.09 276.076 277.186C276.076 276.282 276.289 275.39 276.699 274.584C277.632 272.711 279.87 270.892 284.248 271.29L283.054 256.877L276.747 257.405L277.433 265.827C277.433 265.827 268.778 268.846 269.588 278.599C270.364 287.927 278.909 289.402 282.485 289.1C285.244 288.901 294.523 287.467 293.466 276.218Z" fill="#E0E0E0"/>
<path d="M282.338 247.951L275.936 248.483L276.433 254.461L282.835 253.929L282.338 247.951Z" fill="#E0E0E0"/>
<path d="M258.572 44.6738L271.208 39.6841C271.208 39.6841 267.014 29.0732 277.968 24.5297C280.064 23.6155 282.392 23.3781 284.629 23.8505C286.866 24.323 288.899 25.4818 290.446 27.1652C291.766 28.5548 292.738 30.2365 293.284 32.0733C293.831 33.9101 293.935 35.85 293.589 37.7349C292.841 42.1137 289.554 47.5358 280.446 49.4027L291.558 77.5427L304.056 72.6079L297.433 55.9092C297.433 55.9092 313.219 44.461 305.573 25.1474C298.27 6.67106 279.355 9.1762 270.727 12.5873C265.305 14.7287 249.526 22.4706 258.572 44.6738Z" fill="#F5F5F5"/>
<path d="M306.524 78.4141L293.84 83.4233L298.516 95.265L311.201 90.2557L306.524 78.4141Z" fill="#F5F5F5"/>
<path d="M253.507 46.6642L266.15 41.6745C266.15 41.6745 261.956 31.0637 272.91 26.5201C275.003 25.6035 277.331 25.3628 279.567 25.8315C281.804 26.3002 283.839 27.4551 285.388 29.1351C286.709 30.5278 287.683 32.213 288.229 34.0534C288.775 35.8938 288.879 37.8373 288.531 39.7253C287.824 44.1042 284.393 49.1694 275.264 51.0362L286.52 79.5262L299.012 74.5915L292.423 57.8996C292.423 57.8996 308.161 46.4515 300.528 27.1653C293.233 8.63404 274.969 10.9127 267.872 13.713C262.43 15.8544 244.489 24.4611 253.507 46.6642Z" fill="#E0E0E0"/>
<path d="M301.485 80.3999L288.801 85.4092L293.477 97.2508L306.162 92.2416L301.485 80.3999Z" fill="#E0E0E0"/>
<path d="M156.086 29.8776C157.249 16.772 147.546 5.20338 134.414 4.03832C121.282 2.87325 109.694 12.5529 108.531 25.6585C107.368 38.764 117.071 50.3327 130.203 51.4977C143.335 52.6628 154.923 42.9831 156.086 29.8776Z" fill="white"/>
<path d="M147.639 46.0462L147.934 45.7991L148.771 45.0098L149.389 44.4402C149.609 44.2274 149.828 43.9666 150.075 43.6921L150.865 42.8135C151.153 42.4706 151.423 42.1133 151.674 41.7429C153.052 39.8856 154.135 37.8277 154.887 35.6413C155.914 32.7504 156.368 29.6873 156.225 26.6227C156.225 26.1972 156.177 25.7648 156.156 25.3324C156.136 24.9 156.026 24.4676 155.964 24.0215C155.902 23.5754 155.854 23.1361 155.738 22.6969C155.621 22.2576 155.511 21.8115 155.401 21.3242L155.01 20.0545V19.979C154.852 19.5328 154.688 19.0799 154.53 18.6063C154.372 18.1327 154.118 17.7278 153.912 17.2816C153.712 16.8256 153.483 16.3831 153.226 15.957C152.725 15.0697 152.165 14.2168 151.551 13.4038C151.235 12.9989 150.94 12.5665 150.597 12.1684L149.121 10.5692L148.963 10.4182L148.359 9.88288C147.948 9.53285 147.55 9.15536 147.124 8.81219C146.249 8.13674 145.332 7.51778 144.379 6.95907C143.396 6.38534 142.375 5.87859 141.324 5.44225C140.782 5.22949 140.226 5.06476 139.677 4.86572C139.403 4.78336 139.128 4.66669 138.847 4.59805L137.941 4.51569C137.016 4.27986 136.076 4.11013 135.127 4.0078L133.692 3.82935L132.148 3.76758H131.695L130.775 3.81562L129.856 3.87053L128.943 4.00093L128.023 4.14507L127.563 4.2137L127.11 4.32351L123.74 5.34616L123.507 5.42852C121.124 6.39392 118.901 7.71277 116.911 9.34067C114.958 11.0147 113.268 12.9747 111.901 15.154L111.791 15.3462C111.352 16.2178 110.631 17.6385 110.185 18.5102L110 18.9357L109.849 19.375L109.547 20.3015L109.252 21.1801L109.046 22.0792L108.833 22.9714L108.73 23.4175L108.524 24.9481L108.394 26.3825C108.325 27.333 108.325 28.2872 108.394 29.2377L108.442 30.1162C108.442 30.4114 108.524 30.6996 108.559 30.9879C108.655 31.5644 108.723 32.1409 108.84 32.7037C109.081 33.8182 109.4 34.9145 109.794 35.9844C110.187 37.0304 110.645 38.0505 111.167 39.0387C111.427 39.5191 111.729 39.9721 112.004 40.4114L112.423 41.0977L112.546 41.2761L113.857 43.0057C114.193 43.4175 114.543 43.7813 114.914 44.1656C115.605 44.9023 116.345 45.5902 117.131 46.2247C117.502 46.5665 117.891 46.8873 118.298 47.1855C118.703 47.4601 119.087 47.7621 119.499 48.016L120.748 48.7367L121.983 49.3681L123.246 49.9309C123.661 50.1064 124.085 50.2599 124.516 50.3907C124.935 50.528 125.353 50.679 125.765 50.8026L127.028 51.0977C130.021 51.7729 133.116 51.8615 136.143 51.3585C138.427 50.9995 140.642 50.2911 142.711 49.2583C143.12 49.0769 143.519 48.873 143.905 48.6474L144.907 48.0297C145.216 47.8376 145.511 47.666 145.765 47.4944L146.451 46.9796L147.344 46.2933C147.55 46.1354 147.646 46.0462 147.646 46.0462L147.33 46.2727L146.417 46.959C146.211 47.1032 145.992 47.2748 145.731 47.4532C145.47 47.6317 145.182 47.7895 144.873 47.9817L143.864 48.5857C143.474 48.8052 143.073 49.0045 142.663 49.1828C140.603 50.1753 138.404 50.8509 136.143 51.1869C133.136 51.6678 130.065 51.5653 127.097 50.8849L125.847 50.6104C125.429 50.4868 125.024 50.3358 124.605 50.1986C124.187 50.0613 123.754 49.9378 123.349 49.7387L122.1 49.1759L120.92 48.5719H120.865L119.636 47.8856C119.224 47.6317 118.847 47.3297 118.449 47.0551C118.04 46.782 117.648 46.484 117.275 46.1629C116.498 45.5285 115.767 44.8405 115.086 44.1039C114.742 43.7264 114.399 43.3626 114.042 42.9577L112.745 41.235C112.702 41.1805 112.663 41.1232 112.629 41.0634L112.21 40.377C111.942 39.9172 111.64 39.4711 111.386 39.0043C110.882 38.0275 110.442 37.0187 110.068 35.9844C109.671 34.899 109.353 33.7866 109.114 32.6557C108.998 32.0998 108.936 31.5301 108.84 30.9604C108.806 30.6722 108.737 30.3908 108.723 30.1025L108.689 29.224C108.614 28.047 108.614 26.8663 108.689 25.6893C108.771 25.0991 108.854 24.5088 108.929 23.9117L108.991 23.4656L109.094 23.0263L109.3 22.1478L109.513 21.2556L109.801 20.3908L110.096 19.5191L110.247 19.0867L110.432 18.6612L112.045 15.4972L112.148 15.3256C114.819 10.9585 118.844 7.58423 123.61 5.71679L123.83 5.63443L127.172 4.6255L127.618 4.50883L128.071 4.44019L128.984 4.30292L129.883 4.16566L130.796 4.11761L131.702 4.06957H132.155H132.601L134.392 4.1382C135.564 4.2591 136.727 4.45858 137.872 4.73532L138.723 4.93436C139.005 4.99613 139.272 5.11281 139.547 5.19517C140.089 5.38734 140.645 5.55207 141.173 5.75797C142.215 6.18972 143.227 6.69191 144.2 7.26106C145.155 7.80711 146.073 8.41705 146.946 9.08672C147.371 9.42303 147.762 9.77307 148.167 10.1437L148.771 10.6722L148.922 10.8163L150.384 12.3949C150.727 12.7861 151.022 13.2185 151.338 13.6166C151.947 14.4353 152.502 15.2927 152.999 16.1835C153.251 16.608 153.48 17.0455 153.685 17.4944C153.885 17.9337 154.118 18.3592 154.296 18.8053L154.777 20.1437C154.859 20.3633 154.941 20.5829 155.017 20.83V20.8918C155.182 21.5438 155.346 22.189 155.511 22.8204C155.635 23.2597 155.662 23.7058 155.744 24.1382C155.827 24.5706 155.882 25.0098 155.937 25.4354C155.992 25.8609 155.985 26.2933 156.005 26.712C156.161 29.7525 155.725 32.7943 154.722 35.6687C153.987 37.8461 152.924 39.8989 151.572 41.7566C151.283 42.1341 151.064 42.5253 150.775 42.8341L150.007 43.6372C149.766 43.9117 149.554 44.1725 149.32 44.3921L148.716 44.9687L147.893 45.7442C147.728 45.9501 147.639 46.0462 147.639 46.0462Z" fill="#E0E0E0"/>
<path d="M152.656 59.1967C152.259 59.7237 151.734 60.1411 151.131 60.4094C150.528 60.6778 149.866 60.7883 149.209 60.7307C148.551 60.673 147.919 60.4491 147.372 60.0799C146.825 59.7106 146.38 59.2083 146.081 58.6201C145.751 57.9757 145.61 57.2515 145.673 56.5304C145.736 55.8093 146.001 55.1206 146.438 54.5433C147.066 53.7491 147.979 53.2314 148.983 53.1005C149.987 52.9696 151.002 53.2358 151.813 53.8424C152.623 54.4489 153.165 55.348 153.322 56.3481C153.48 57.3482 153.241 58.3703 152.656 59.1967Z" fill="white"/>
<path d="M152.038 59.8417C152.038 59.8417 152.114 59.8005 152.237 59.6976C152.422 59.5434 152.587 59.3684 152.731 59.176C153.185 58.5692 153.455 57.8443 153.507 57.0884C153.559 56.3324 153.392 55.5774 153.026 54.9138C152.678 54.2883 152.168 53.767 151.551 53.4038C150.868 52.9981 150.078 52.8113 149.286 52.8685C148.432 52.9154 147.616 53.2377 146.96 53.787C146.304 54.3363 145.844 55.0832 145.648 55.9159C145.459 56.6871 145.504 57.4974 145.779 58.2426C146.029 58.9133 146.453 59.5055 147.007 59.9584C147.491 60.3493 148.06 60.6198 148.668 60.7477C149.544 60.9384 150.458 60.8196 151.256 60.4114C151.472 60.3062 151.673 60.1723 151.853 60.0133C151.983 59.9104 152.045 59.8486 152.038 59.8417C152.031 59.8349 151.757 60.0545 151.208 60.3084C150.425 60.6643 149.546 60.7488 148.709 60.5487C148.226 60.4335 147.77 60.2238 147.367 59.9318C146.965 59.6398 146.624 59.2712 146.364 58.8471C146.105 58.4229 145.931 57.9517 145.855 57.4605C145.778 56.9692 145.798 56.4676 145.916 55.9845C146.105 55.2114 146.535 54.5187 147.145 54.0076C147.755 53.4964 148.512 53.1935 149.307 53.143C150.045 53.0914 150.782 53.2636 151.42 53.6372C151.991 53.9657 152.465 54.4393 152.793 55.0099C153.151 55.6375 153.323 56.3536 153.29 57.0751C153.257 57.7966 153.021 58.4941 152.608 59.0868C152.292 59.6084 152.011 59.8211 152.038 59.8417Z" fill="#E0E0E0"/>
<path d="M124.996 23.8572H128.593C128.591 23.4461 128.671 23.0388 128.83 22.6595C128.988 22.2802 129.221 21.9367 129.515 21.6492C129.809 21.3618 130.158 21.1363 130.54 20.9862C130.923 20.8361 131.332 20.7645 131.743 20.7755C132.35 20.7535 132.949 20.9216 133.456 21.2562C133.963 21.5909 134.352 22.0755 134.571 22.6423C134.76 23.1148 134.835 23.6252 134.79 24.1321C134.744 24.6389 134.58 25.1279 134.31 25.5593C133.699 26.5682 132.361 27.4879 129.931 27.0624V35.1955H133.493V30.3911C134.957 29.9626 136.24 29.0647 137.144 27.8358C138.048 26.6069 138.523 25.1149 138.497 23.5895C138.497 18.3115 133.768 17.0898 131.743 17.0898C130.199 17.1242 124.928 17.4948 124.996 23.8572Z" fill="#E0E0E0"/>
<path d="M133.541 36.8701H129.924V40.2538H133.541V36.8701Z" fill="#E0E0E0"/>
<path d="M83.6169 125.751H87.227C87.225 125.34 87.3057 124.933 87.4642 124.553C87.6227 124.174 87.8557 123.831 88.1496 123.543C88.4434 123.256 88.7921 123.03 89.1748 122.88C89.5575 122.73 89.9664 122.658 90.3773 122.669C90.9824 122.648 91.579 122.816 92.0845 123.149C92.59 123.483 92.9792 123.965 93.1982 124.529C93.3906 125.002 93.468 125.514 93.4238 126.022C93.3797 126.53 93.2153 127.021 92.9443 127.453C92.3334 128.462 90.9882 129.382 88.5585 128.949V137.083H92.1275V132.319C93.5917 131.891 94.8745 130.993 95.7786 129.764C96.6826 128.535 97.1578 127.043 97.1309 125.518C97.1309 120.24 92.402 119.011 90.3773 119.011C88.8262 119.011 83.5482 119.389 83.6169 125.751Z" fill="#E0E0E0"/>
<path d="M92.1688 138.764H88.5518V142.148H92.1688V138.764Z" fill="#E0E0E0"/>
<path d="M245.47 152.141L241.427 149.574C241.427 149.574 239.265 153.006 235.696 150.789C234.997 150.382 234.442 149.766 234.111 149.027C233.78 148.288 233.689 147.464 233.85 146.671C233.972 146.005 234.25 145.377 234.662 144.838C235.073 144.3 235.607 143.868 236.218 143.576C237.625 142.889 239.787 142.807 242.21 145.017L248.003 135.889L244.001 133.342L240.604 138.696C240.604 138.696 234.07 136.582 230.137 142.766C226.376 148.689 230.823 153.432 233.088 154.88C234.825 155.998 241.016 159.334 245.47 152.141Z" fill="#E0E0E0"/>
<path d="M247.564 127.664L245.154 131.459L249.216 134.038L251.626 130.244L247.564 127.664Z" fill="#E0E0E0"/>
<path d="M85.1543 25.3669L81.7981 26.6915C81.9529 27.0724 82.0291 27.4806 82.0223 27.8917C82.0155 28.3028 81.9258 28.7082 81.7585 29.0838C81.5912 29.4593 81.3499 29.7973 81.0488 30.0773C80.7478 30.3573 80.3934 30.5737 80.0068 30.7135C79.4516 30.9591 78.8336 31.025 78.2392 30.9019C77.6447 30.7789 77.1037 30.473 76.6917 30.0271C76.3408 29.6585 76.0825 29.2117 75.9381 28.7237C75.7937 28.2356 75.7674 27.7202 75.8613 27.22C76.0603 26.0532 76.9663 24.708 79.389 24.2138L76.3966 16.6641L73.0816 17.975L74.8317 22.3607C73.6275 23.2981 72.7644 24.605 72.3751 26.0805C71.9857 27.5561 72.0917 29.1187 72.6766 30.5282C74.6121 35.4355 79.4645 34.8384 81.3451 34.0971C82.7864 33.5481 87.5565 31.2831 85.1543 25.3669Z" fill="#E0E0E0"/>
<path d="M74.6133 11.7164L71.2495 13.0547L72.5015 16.2015L75.8653 14.8632L74.6133 11.7164Z" fill="#E0E0E0"/>
<path d="M315.394 307.508C315.394 307.604 247.446 307.687 163.603 307.687C79.7594 307.687 11.7979 307.604 11.7979 307.508C11.7979 307.412 79.7457 307.33 163.603 307.33C247.46 307.33 315.394 307.405 315.394 307.508Z" fill="#263238"/>
<path d="M266.547 186.506L261.27 184.145L292.697 144.571L297.824 145.992C298.59 146.203 299.274 146.641 299.787 147.248L304.893 153.26C305.245 153.675 305.419 154.213 305.375 154.756C305.331 155.299 305.074 155.802 304.66 156.156L269.382 186.101C268.996 186.43 268.525 186.643 268.023 186.715C267.522 186.786 267.01 186.714 266.547 186.506Z" fill="#455A64"/>
<path d="M302.189 183.72L296.479 188.524C296.166 188.791 295.789 188.969 295.385 189.042C294.981 189.114 294.565 189.078 294.179 188.936L289.883 187.405C289.347 187.206 288.903 186.818 288.634 186.314L265.257 142.244L270.528 143.775C271.208 143.973 271.814 144.367 272.271 144.907L302.436 180.446C302.836 180.913 303.035 181.52 302.988 182.134C302.942 182.747 302.655 183.318 302.189 183.72Z" fill="#455A64"/>
<g opacity="0.3">
<path d="M266.547 186.506L261.27 184.145L292.697 144.571L297.824 145.992C298.59 146.203 299.274 146.641 299.787 147.248L304.893 153.26C305.245 153.675 305.419 154.213 305.375 154.756C305.331 155.299 305.074 155.802 304.66 156.156L269.382 186.101C268.996 186.43 268.525 186.643 268.023 186.715C267.522 186.786 267.01 186.714 266.547 186.506Z" fill="black"/>
<path d="M302.189 183.72L296.479 188.524C296.167 188.791 295.789 188.969 295.385 189.042C294.981 189.114 294.565 189.078 294.18 188.936L289.883 187.405C289.348 187.206 288.904 186.818 288.634 186.314L265.257 142.244L270.528 143.775C271.208 143.973 271.814 144.367 272.272 144.907L302.436 180.446C302.837 180.913 303.035 181.52 302.989 182.134C302.943 182.747 302.655 183.318 302.189 183.72Z" fill="black"/>
</g>
<path d="M298.775 151.293L293.588 145.181C293.027 144.519 292.035 144.438 291.373 144.999L255.632 175.332C254.97 175.893 254.889 176.885 255.45 177.547L260.638 183.659C261.199 184.321 262.191 184.402 262.853 183.84L298.594 153.508C299.256 152.947 299.337 151.955 298.775 151.293Z" fill="#455A64"/>
<path d="M257.905 147.976L264.185 142.646C264.463 142.411 264.822 142.295 265.185 142.325C265.548 142.355 265.884 142.527 266.12 142.805L296.603 178.724C296.873 179.042 297.005 179.454 296.971 179.869C296.937 180.285 296.739 180.67 296.421 180.939L290.294 186.14C289.976 186.409 289.564 186.542 289.148 186.508C288.733 186.474 288.348 186.276 288.078 185.958L257.746 150.217C257.477 149.899 257.344 149.487 257.378 149.072C257.412 148.656 257.61 148.272 257.928 148.002L257.905 147.976Z" fill="#455A64"/>
<path d="M267.92 166.664C266.269 168.312 264.535 169.874 262.724 171.345C260.991 172.908 259.179 174.381 257.295 175.758C258.947 174.109 260.681 172.544 262.491 171.07C264.225 169.51 266.037 168.04 267.92 166.664Z" fill="white"/>
<path d="M291.592 146.424C291.661 146.499 289.039 148.819 285.751 151.606C282.464 154.392 279.746 156.582 279.684 156.506C279.622 156.431 282.23 154.118 285.525 151.331C288.819 148.545 291.53 146.348 291.592 146.424Z" fill="white"/>
<path d="M269.093 161.002C269.018 161.064 266.993 158.6 264.57 155.511C262.148 152.423 260.246 149.856 260.322 149.794C261.924 151.546 263.436 153.378 264.852 155.285C266.364 157.116 267.78 159.024 269.093 161.002Z" fill="white"/>
<path d="M287.186 181.592C285.54 180.076 283.977 178.472 282.505 176.787C280.943 175.183 279.469 173.495 278.092 171.729C279.733 173.25 281.295 174.854 282.773 176.533C284.332 178.141 285.805 179.829 287.186 181.592Z" fill="white"/>
<path d="M17.3642 179.046L16.2729 174.983L45.6964 180.844L71.6882 144.296L74.8591 150.199C75.1023 150.648 75.2298 151.15 75.2298 151.661C75.2298 152.171 75.1023 152.674 74.8591 153.123L52.2922 194.434C51.8904 195.168 51.346 195.814 50.6908 196.334C50.0357 196.854 49.283 197.238 48.4772 197.464C47.6714 197.689 46.8287 197.75 45.9987 197.645C45.1687 197.539 44.3682 197.269 43.6443 196.85L20.8714 183.651C20.0126 183.152 19.2607 182.488 18.6589 181.698C18.0571 180.908 17.6171 180.006 17.3642 179.046Z" fill="#6897A4"/>
<g opacity="0.3">
<path d="M17.3642 179.046L16.2729 174.983L45.6964 180.844L71.6882 144.296L74.8591 150.199C75.1023 150.648 75.2298 151.15 75.2298 151.661C75.2298 152.171 75.1023 152.674 74.8591 153.123L52.2922 194.434C51.8904 195.168 51.346 195.814 50.6908 196.334C50.0357 196.854 49.283 197.238 48.4772 197.464C47.6714 197.689 46.8287 197.75 45.9987 197.645C45.1687 197.539 44.3682 197.269 43.6443 196.85L20.8714 183.651C20.0126 183.152 19.2607 182.488 18.6589 181.698C18.0571 180.908 17.6171 180.006 17.3642 179.046Z" fill="black"/>
</g>
<path d="M16.3553 173.047L20.5969 165.538C20.8885 165.02 21.3675 164.633 21.9355 164.457C22.5035 164.281 23.1174 164.329 23.6511 164.591L40.6724 172.93C41.2168 173.195 41.8428 173.239 42.4187 173.052C42.9946 172.865 43.4757 172.462 43.7609 171.928L60.6449 140.247C60.7946 139.966 61.0002 139.718 61.2491 139.519C61.4981 139.321 61.7851 139.175 62.0924 139.092C62.3997 139.008 62.7209 138.988 63.0362 139.033C63.3515 139.079 63.6542 139.188 63.9256 139.355L70.789 143.576C71.2983 143.888 71.6683 144.384 71.8228 144.961C71.9773 145.538 71.9046 146.153 71.6195 146.678L49.5468 187.042C48.8336 188.347 47.6348 189.319 46.2101 189.747C44.7854 190.174 43.2496 190.024 41.9352 189.327L17.2887 176.287C17.0097 176.14 16.7633 175.939 16.5642 175.695C16.3651 175.451 16.2175 175.169 16.1303 174.866C16.0431 174.563 16.018 174.246 16.0567 173.934C16.0954 173.621 16.1969 173.319 16.3553 173.047Z" fill="#6897A4"/>
<path d="M39.5124 174.852C39.1976 174.759 38.892 174.637 38.5996 174.488L36.1768 173.39C34.1178 172.443 31.3312 171.118 28.2427 169.636L25.9846 168.551L24.9139 168.037C24.5982 167.863 24.2502 167.755 23.8913 167.721C23.5614 167.692 23.2291 167.73 22.9142 167.833C22.5994 167.935 22.3084 168.101 22.0588 168.318C21.6445 168.746 21.3078 169.243 21.0636 169.787L19.7389 172.1C19.5884 172.39 19.4115 172.666 19.2104 172.923C19.3168 172.614 19.4523 172.315 19.6154 172.031L20.8371 169.663L21.2489 168.881C21.4049 168.584 21.6117 168.317 21.8597 168.092C22.1394 167.845 22.4658 167.657 22.8195 167.539C23.1732 167.421 23.5471 167.376 23.9188 167.405C24.3198 167.438 24.7099 167.552 25.0649 167.742L26.1356 168.249L28.3868 169.313C31.4754 170.796 34.2688 172.162 36.2798 173.164L38.682 174.365C38.9714 174.505 39.2491 174.668 39.5124 174.852Z" fill="white"/>
<path d="M45.7511 173.486C45.6619 173.438 49.2378 166.369 53.7402 157.7C58.2426 149.032 61.9763 142.031 62.0449 142.079C62.1135 142.127 58.5583 149.19 54.0559 157.865C49.5535 166.541 45.8335 173.528 45.7511 173.486Z" fill="white"/>
<path d="M116.65 79.0632C118.219 66.4316 109.251 54.9198 96.6189 53.3509C83.9873 51.782 72.4755 60.7502 70.9066 73.3818C69.3377 86.0134 78.3059 97.5252 90.9375 99.0941C103.569 100.663 115.081 91.6949 116.65 79.0632Z" fill="white"/>
<path d="M116.822 76.2111C116.822 76.2111 116.822 76.0875 116.822 75.8404C116.822 75.5933 116.822 75.2159 116.781 74.7423L116.747 73.9324C116.747 73.6373 116.664 73.3147 116.616 72.9647C116.568 72.6146 116.507 72.2371 116.452 71.8391C116.397 71.441 116.259 71.0223 116.163 70.5762C115.644 68.3996 114.792 66.3161 113.638 64.3991C112.132 61.8441 110.143 59.6063 107.783 57.8102L106.788 57.0621C106.438 56.8288 106.067 56.616 105.703 56.3758C105.34 56.1356 104.976 55.9022 104.578 55.6894L103.377 55.1061L102.766 54.8178L102.121 54.5844L100.824 54.104C100.377 53.953 99.9176 53.8569 99.4509 53.7334C98.9992 53.6025 98.541 53.4949 98.0782 53.4108C97.1103 53.2298 96.1311 53.1152 95.1476 53.0676C94.6465 53.0676 94.1455 52.999 93.6376 53.0059L92.1071 53.0814C91.8463 53.0814 91.5855 53.0814 91.3315 53.1294L90.5559 53.2461C90.0412 53.3284 89.5196 53.3902 88.9979 53.5C87.9497 53.7311 86.9179 54.0315 85.9094 54.3991C84.8707 54.7692 83.8593 55.2118 82.8826 55.7238C82.3953 55.9846 81.9218 56.2934 81.4345 56.5817C81.2011 56.7327 80.9472 56.8631 80.7481 57.0347L80.0618 57.5426C79.1385 58.2288 78.2605 58.9739 77.4331 59.7732L76.2526 61.0704L75.9574 61.3998L75.6898 61.7498L75.1613 62.4362L74.626 63.1225L74.1592 63.8844L73.6925 64.6462L73.4592 65.0374L73.2601 65.4424C72.9993 65.9846 72.7316 66.5268 72.4708 67.0759C72.21 67.6249 72.0522 68.2152 71.8394 68.7917C70.2469 73.5393 70.2469 78.6769 71.8394 83.4245C72.0522 84.001 72.2581 84.5707 72.4708 85.1404L73.2533 86.7807L73.4523 87.1857L73.6857 87.57L74.1524 88.3387L74.626 89.1006L75.1544 89.7869L75.6898 90.4732L75.9574 90.8301L76.2526 91.1527L77.4331 92.4499C78.2587 93.2511 79.1368 93.9963 80.0618 94.6805L80.7481 95.1953C80.9746 95.3668 81.2285 95.4972 81.4345 95.6482C81.9218 95.9296 82.3885 96.2385 82.8826 96.5062C83.8593 97.0181 84.8707 97.4607 85.9094 97.8308C86.9179 98.1985 87.9497 98.4988 88.9979 98.7299C89.5196 98.8397 90.0412 98.8946 90.5559 98.9839L91.3315 99.1005C91.5923 99.1349 91.8463 99.1005 92.1071 99.1486L93.6376 99.2241C94.1455 99.2241 94.6534 99.1829 95.1476 99.1623C96.1311 99.1148 97.1103 99.0001 98.0782 98.8191C98.5411 98.7358 98.9993 98.6281 99.4509 98.4966C99.9108 98.3662 100.371 98.2701 100.824 98.1259L102.121 97.6455L102.766 97.4121L103.377 97.117L104.578 96.5405C104.976 96.3552 105.333 96.0944 105.703 95.8541C106.074 95.6139 106.438 95.4149 106.788 95.1678L107.79 94.4197C110.146 92.6217 112.132 90.3842 113.638 87.8308C114.791 85.9132 115.643 83.8299 116.163 81.6537C116.281 81.238 116.377 80.8165 116.452 80.3909C116.507 79.9859 116.568 79.6084 116.616 79.2584C116.664 78.9084 116.719 78.5721 116.747 78.2907C116.774 78.0093 116.747 77.7279 116.781 77.4877C116.781 77.0072 116.815 76.6435 116.822 76.3895C116.829 76.1356 116.822 76.012 116.822 76.012C116.822 76.012 116.822 76.1424 116.822 76.3895C116.822 76.6366 116.788 77.0072 116.754 77.4808C116.754 77.721 116.754 77.9887 116.706 78.2907C116.657 78.5927 116.616 78.9015 116.561 79.2515C116.507 79.6016 116.445 79.9379 116.383 80.3703C116.308 80.7947 116.207 81.2141 116.081 81.6263C115.546 83.7817 114.688 85.8436 113.535 87.7416C112.034 90.334 110.038 92.6055 107.66 94.4266L106.671 95.1678C106.321 95.3943 105.951 95.6071 105.594 95.8541C105.237 96.1012 104.866 96.3209 104.468 96.5062L103.281 97.0758L102.677 97.3641L102.038 97.5975L100.748 98.0642C100.309 98.2083 99.849 98.3044 99.3754 98.4279C98.9237 98.557 98.4655 98.6623 98.0027 98.7436C97.0434 98.9193 96.0736 99.0317 95.0995 99.08C94.6053 99.08 94.1112 99.1417 93.6033 99.1349L92.0865 99.0525C91.8325 99.0525 91.5786 99.0525 91.3246 99.0045L90.5559 98.8878C90.048 98.8054 89.5264 98.7436 89.0185 98.6407C87.979 98.4105 86.9563 98.1101 85.9575 97.7416C84.9341 97.3719 83.9366 96.9339 82.9719 96.4307C82.4846 96.163 82.0247 95.861 81.5443 95.5727C81.3109 95.4218 81.057 95.2982 80.8579 95.1266L80.1716 94.6187C79.2558 93.9414 78.3867 93.203 77.5704 92.4087L76.431 91.1321L76.1359 90.8095L75.8751 90.4595L75.3466 89.7732L74.8181 89.0868L74.3583 88.3318L73.8984 87.57L73.6651 87.1925L73.4729 86.7876L72.6905 85.1747L72.0728 83.4725C70.4986 78.783 70.4986 73.7077 72.0728 69.0182L72.6973 67.3161C72.9581 66.7807 73.2121 66.2385 73.4729 65.7032L73.6719 65.3051L73.8984 64.9207L74.3583 64.1658L74.825 63.4108L75.3466 62.7244L75.8751 62.0381L76.1359 61.6881L76.431 61.3655L77.5978 60.082C78.4136 59.2897 79.2802 58.5515 80.1922 57.872L80.8785 57.371C81.0981 57.1994 81.3521 57.069 81.5649 56.918C82.0453 56.6366 82.5051 56.3277 82.9924 56.0669C83.9572 55.5637 84.9547 55.1258 85.978 54.756C86.9769 54.3875 87.9996 54.0872 89.0391 53.8569C89.547 53.754 90.0686 53.6922 90.5765 53.6098L91.3452 53.4932C91.5992 53.4588 91.8531 53.4588 92.1071 53.4382L93.6239 53.3627C94.1318 53.3627 94.6259 53.4039 95.1201 53.4177C96.0941 53.4663 97.064 53.5787 98.0233 53.754C98.4867 53.8321 98.9451 53.9375 99.396 54.0697C99.849 54.1932 100.309 54.2893 100.769 54.4334L102.059 54.9002L102.69 55.1335L103.301 55.4218L104.489 55.9914C104.887 56.1699 105.237 56.4307 105.607 56.6366C105.978 56.8425 106.342 57.069 106.692 57.3229L107.68 58.0573C110.026 59.8349 112.009 62.046 113.521 64.5707C114.673 66.4693 115.531 68.531 116.067 70.686C116.192 71.0986 116.292 71.518 116.369 71.942C116.431 72.347 116.493 72.7176 116.548 73.0676C116.603 73.4176 116.664 73.754 116.692 74.0285C116.719 74.303 116.726 74.5913 116.74 74.8384C116.774 75.312 116.795 75.6757 116.808 75.9297C116.822 76.1836 116.822 76.2111 116.822 76.2111Z" fill="#263238"/>
<path d="M125.587 90.6996C125.587 91.4408 125.367 92.1653 124.955 92.7815C124.543 93.3978 123.958 93.8781 123.273 94.1617C122.589 94.4454 121.835 94.5196 121.108 94.375C120.381 94.2304 119.713 93.8735 119.189 93.3494C118.665 92.8253 118.308 92.1576 118.164 91.4307C118.019 90.7037 118.093 89.9503 118.377 89.2655C118.661 88.5807 119.141 87.9955 119.757 87.5837C120.374 87.1719 121.098 86.9522 121.839 86.9522C122.332 86.9513 122.819 87.0476 123.274 87.2356C123.729 87.4236 124.143 87.6996 124.491 88.0477C124.839 88.3959 125.115 88.8094 125.303 89.2644C125.491 89.7195 125.588 90.2072 125.587 90.6996Z" fill="white"/>
<path d="M125.587 90.6994C125.587 90.6994 125.587 90.6171 125.587 90.4592C125.589 90.2283 125.563 89.9979 125.511 89.7729C125.318 88.9245 124.832 88.1713 124.138 87.6452C123.677 87.2686 123.134 87.0053 122.553 86.8765C121.865 86.7445 121.154 86.799 120.494 87.0344C119.765 87.2984 119.133 87.777 118.682 88.4071C118.192 89.0722 117.928 89.8767 117.928 90.7029C117.928 91.529 118.192 92.3335 118.682 92.9987C119.133 93.6288 119.765 94.1073 120.494 94.3714C121.152 94.6136 121.865 94.6683 122.553 94.5292C123.271 94.3867 123.934 94.0404 124.461 93.5316C124.988 93.0229 125.357 92.3733 125.525 91.6603C125.577 91.4353 125.602 91.2049 125.6 90.974C125.6 90.8161 125.6 90.7338 125.6 90.7338C125.6 90.7338 125.6 91.0701 125.429 91.6397C125.246 92.3124 124.876 92.9195 124.362 93.3908C123.848 93.862 123.212 94.1782 122.526 94.3027C121.886 94.4151 121.227 94.3559 120.618 94.1312C119.945 93.8882 119.361 93.4481 118.943 92.8683C118.488 92.2496 118.243 91.5017 118.243 90.7338C118.243 89.9658 118.488 89.2179 118.943 88.5992C119.363 88.0215 119.946 87.5819 120.618 87.3364C121.227 87.1117 121.886 87.0525 122.526 87.1648C123.212 87.2899 123.85 87.6071 124.364 88.0796C124.877 88.5522 125.247 89.1607 125.429 89.8347C125.573 90.3631 125.559 90.6994 125.587 90.6994Z" fill="#263238"/>
<path d="M86.1975 78.0296V81.1662H83.7267V77.9953L80.3979 72.4634H82.9992L85.0582 75.9363L87.1172 72.4634H89.5126L86.1975 78.0296Z" fill="#263238"/>
<path d="M97.1309 79.2582V81.1662H90.1577V72.4634H97.0211V74.3783H92.6217V75.847H96.4995V77.6933H92.6217V79.2925L97.1309 79.2582Z" fill="#263238"/>
<path d="M97.8857 80.3771L98.6956 78.5583C99.5593 79.104 100.557 79.4009 101.578 79.4162C102.601 79.4162 102.999 79.1279 102.999 78.7299C102.999 77.3572 98.0367 78.3524 98.0367 75.1128C98.0367 73.548 99.3133 72.2783 101.908 72.2783C103.01 72.2598 104.099 72.5219 105.072 73.0401L104.31 74.8726C103.573 74.4484 102.744 74.2126 101.894 74.1863C100.858 74.1863 100.48 74.5363 100.48 74.9687C100.48 76.3414 105.435 75.305 105.435 78.524C105.435 80.0476 104.159 81.3448 101.565 81.3448C100.272 81.3753 98.9963 81.0398 97.8857 80.3771Z" fill="#263238"/>
<path d="M244.556 115.245C258.116 113.52 267.709 101.13 265.984 87.5705C264.259 74.011 251.869 64.4173 238.309 66.1423C224.75 67.8673 215.156 80.2577 216.881 93.8172C218.606 107.377 230.997 116.97 244.556 115.245Z" fill="white"/>
<path d="M216.678 90.7131C216.678 90.7131 216.678 90.5759 216.678 90.3082C216.678 90.0405 216.678 89.6218 216.726 89.1345L216.76 88.2629C216.76 87.9472 216.85 87.5765 216.904 87.2265C216.959 86.8765 217.014 86.4441 217.083 86.0117C217.158 85.5483 217.261 85.0898 217.392 84.639C217.952 82.3059 218.866 80.0722 220.103 78.0158C221.721 75.2746 223.853 72.8718 226.383 70.9396L227.454 70.1366C227.831 69.8895 228.229 69.663 228.62 69.4503C229.012 69.2375 229.403 68.9424 229.835 68.7639L231.119 68.1462L231.805 67.8305L232.491 67.5766L233.864 67.0618C234.338 66.9039 234.839 66.801 235.326 66.6637C235.82 66.5218 236.322 66.4073 236.829 66.3206C237.867 66.1271 238.917 66.0032 239.972 65.9499C240.515 65.9499 241.05 65.8744 241.599 65.8813L243.246 65.9637C243.521 65.9637 243.795 65.9637 244.077 66.0186L244.907 66.1421C245.456 66.2313 246.019 66.3 246.582 66.4098C247.706 66.6638 248.813 66.987 249.897 67.3775C251.011 67.7762 252.096 68.2532 253.143 68.8051C253.672 69.0865 254.18 69.416 254.694 69.7248C254.955 69.8895 255.223 70.0268 255.47 70.2121L256.198 70.7612C257.193 71.4947 258.138 72.295 259.025 73.1565L260.295 74.5292L260.611 74.8792L260.899 75.2567L261.469 76.0186L262.038 76.7804L262.546 77.604L263.047 78.4276L263.294 78.8394L263.507 79.2718C263.788 79.8552 264.07 80.4455 264.358 81.0289C264.646 81.6122 264.804 82.2574 265.044 82.8751C266.765 87.9706 266.765 93.49 265.044 98.5855C264.818 99.2032 264.598 99.8209 264.358 100.432L263.514 102.189L263.301 102.621L263.047 103.033L262.546 103.863L262.045 104.68L261.469 105.442L260.899 106.211L260.611 106.588L260.295 106.938L259.025 108.311C258.137 109.169 257.195 109.969 256.204 110.706L255.47 111.255C255.223 111.434 254.955 111.578 254.701 111.736C254.18 112.045 253.672 112.381 253.15 112.662C252.099 113.208 251.012 113.683 249.897 114.083C248.813 114.481 247.703 114.804 246.575 115.051C246.019 115.167 245.456 115.229 244.9 115.318L244.077 115.449C243.795 115.483 243.521 115.483 243.239 115.497L241.599 115.579C241.05 115.579 240.508 115.531 239.972 115.518C238.917 115.462 237.867 115.336 236.829 115.14C236.321 115.057 235.819 114.943 235.326 114.797C234.832 114.66 234.338 114.557 233.864 114.399L232.491 113.884L231.805 113.637L231.119 113.321L229.828 112.697C229.403 112.498 229.018 112.223 228.62 112.01C228.222 111.798 227.831 111.544 227.454 111.29L226.383 110.487C223.85 108.556 221.715 106.153 220.096 103.41C218.862 101.354 217.95 99.12 217.392 96.7873C217.26 96.3366 217.157 95.8782 217.083 95.4146C217.014 94.9822 216.959 94.5772 216.904 94.2066C216.85 93.836 216.788 93.5203 216.76 93.1634C216.733 92.8065 216.76 92.5594 216.726 92.2986C216.726 91.7838 216.692 91.3926 216.678 91.1181C216.664 90.8435 216.678 90.72 216.678 90.72C216.678 90.72 216.678 90.8573 216.712 91.1181C216.747 91.3789 216.76 91.8044 216.788 92.2917C216.788 92.5525 216.822 92.8408 216.843 93.1565C216.863 93.4722 216.939 93.8428 216.994 94.1929C217.049 94.5429 217.117 94.9685 217.186 95.394C217.254 95.8195 217.399 96.2725 217.508 96.7667C218.089 99.0814 219.014 101.296 220.254 103.335C221.877 106.047 224.007 108.421 226.527 110.329L227.591 111.118C227.961 111.365 228.36 111.592 228.751 111.804C229.139 112.053 229.54 112.282 229.952 112.491L231.228 113.102L231.915 113.41L232.601 113.664L233.974 114.165C234.447 114.323 234.942 114.426 235.429 114.557C235.918 114.698 236.416 114.81 236.918 114.893C237.945 115.085 238.984 115.206 240.027 115.257C240.563 115.257 241.098 115.325 241.633 115.318L243.267 115.229C243.535 115.229 243.816 115.229 244.084 115.181L244.907 115.051C245.456 114.962 246.012 114.9 246.561 114.783C247.677 114.536 248.775 114.215 249.849 113.822C250.949 113.425 252.019 112.953 253.054 112.408C253.576 112.127 254.077 111.798 254.591 111.496C254.839 111.331 255.113 111.194 255.346 111.015L256.074 110.473C257.055 109.742 257.988 108.949 258.867 108.098L260.117 106.725L260.432 106.382L260.714 106.005L261.276 105.25L261.846 104.495L262.34 103.685L262.834 102.868L263.082 102.463L263.294 102.031C263.569 101.454 263.85 100.878 264.125 100.294C264.399 99.7111 264.571 99.0796 264.811 98.4756C265.617 95.9632 266.042 93.3445 266.074 90.7063C266.043 88.0696 265.615 85.4527 264.804 82.9438L264.118 81.1249C263.836 80.5415 263.562 79.965 263.281 79.3885L263.075 78.9561L262.828 78.5512L262.327 77.7344L261.832 76.9245L261.27 76.1696L260.707 75.4146L260.425 75.044L260.11 74.6939L258.861 73.3212C257.981 72.4725 257.048 71.6816 256.067 70.9534L255.34 70.4112C255.099 70.2258 254.832 70.0886 254.585 69.9307C254.07 69.6219 253.569 69.2993 253.047 69.011C250.994 67.9448 248.812 67.1489 246.554 66.6431C246.005 66.5265 245.449 66.4647 244.9 66.3686L244.084 66.2451C243.809 66.2107 243.535 66.2107 243.26 66.1902L241.626 66.1078C241.091 66.1078 240.556 66.149 240.027 66.1696C238.981 66.2164 237.94 66.3379 236.911 66.5333C236.408 66.6104 235.91 66.7228 235.422 66.8696C234.935 67 234.44 67.103 233.967 67.254L232.594 67.7619L231.908 68.009L231.222 68.3178L229.945 68.9287C229.519 69.1277 229.142 69.4022 228.744 69.615C228.346 69.8278 227.961 70.0748 227.584 70.3013L226.52 71.0975C224 73.0054 221.871 75.3797 220.247 78.0913C219.009 80.1289 218.084 82.3406 217.502 84.6527C217.392 85.1332 217.234 85.5724 217.179 86.0254C217.124 86.4784 217.049 86.8559 216.987 87.2334C216.925 87.6109 216.87 87.9197 216.836 88.2629C216.802 88.6061 216.795 88.8737 216.781 89.1277L216.705 90.3013C216.699 90.5759 216.678 90.7131 216.678 90.7131Z" fill="#263238"/>
<path d="M207.268 106.266C207.267 107.063 207.502 107.843 207.944 108.506C208.386 109.17 209.016 109.688 209.752 109.993C210.488 110.299 211.299 110.379 212.081 110.224C212.863 110.069 213.582 109.685 214.146 109.121C214.71 108.557 215.093 107.839 215.249 107.057C215.404 106.275 215.324 105.464 215.018 104.728C214.712 103.991 214.194 103.362 213.531 102.92C212.867 102.478 212.087 102.242 211.29 102.244C210.224 102.245 209.202 102.67 208.448 103.424C207.694 104.178 207.27 105.199 207.268 106.266Z" fill="white"/>
<path d="M207.268 106.266C207.258 106.182 207.258 106.096 207.268 106.012C207.265 105.762 207.293 105.514 207.35 105.271C207.554 104.363 208.069 103.554 208.806 102.985C209.313 102.588 209.909 102.317 210.542 102.196C211.225 102.058 211.933 102.094 212.598 102.302C213.264 102.509 213.867 102.88 214.351 103.382C214.835 103.884 215.186 104.499 215.369 105.172C215.553 105.844 215.565 106.552 215.403 107.23C215.241 107.909 214.911 108.535 214.443 109.052C213.975 109.569 213.385 109.96 212.726 110.189C212.067 110.417 211.362 110.477 210.674 110.361C209.987 110.245 209.339 109.958 208.792 109.526C208.054 108.958 207.539 108.149 207.337 107.241C207.279 107 207.252 106.753 207.254 106.506C207.244 106.42 207.244 106.332 207.254 106.245C207.289 106.245 207.254 106.602 207.44 107.213C207.676 108.073 208.193 108.829 208.908 109.361C209.431 109.75 210.042 110.003 210.687 110.097C211.332 110.19 211.99 110.121 212.601 109.897C213.325 109.631 213.952 109.153 214.399 108.524C214.89 107.86 215.154 107.057 215.154 106.232C215.154 105.406 214.89 104.603 214.399 103.939C213.952 103.31 213.325 102.832 212.601 102.567C211.942 102.326 211.232 102.265 210.542 102.388C209.947 102.487 209.384 102.722 208.895 103.074C208.179 103.607 207.663 104.363 207.426 105.223C207.289 105.909 207.302 106.266 207.268 106.266Z" fill="#263238"/>
<path d="M240.281 85.1333V95.5931H237.845L233.225 90.02V95.5931H230.329V85.1333H232.766L237.385 90.7064V85.1333H240.281Z" fill="#263238"/>
<path d="M241.839 90.3631C241.839 87.2265 244.303 84.9204 247.653 84.9204C251.002 84.9204 253.466 87.2265 253.466 90.3631C253.466 93.4997 251.002 95.8058 247.653 95.8058C244.303 95.8058 241.839 93.4997 241.839 90.3631ZM250.48 90.3631C250.448 89.812 250.255 89.2823 249.926 88.8395C249.596 88.3966 249.144 88.06 248.626 87.871C248.107 87.682 247.544 87.6489 247.007 87.7759C246.47 87.903 245.981 88.1844 245.602 88.5857C245.223 88.9869 244.97 89.4904 244.873 90.034C244.777 90.5775 244.842 91.1374 245.06 91.6446C245.278 92.1518 245.639 92.584 246.1 92.8881C246.561 93.1921 247.101 93.3546 247.653 93.3556C248.039 93.3603 248.423 93.2848 248.779 93.1339C249.135 92.983 249.456 92.7599 249.722 92.4788C249.988 92.1976 250.192 91.8645 250.323 91.5003C250.453 91.1362 250.507 90.749 250.48 90.3631Z" fill="#263238"/>
<path d="M205.142 55.7989C216.119 51.4794 221.509 39.0621 217.181 28.064C212.854 17.0659 200.447 11.6518 189.47 15.9713C178.493 20.2908 173.103 32.7082 177.43 43.7063C181.758 54.7044 194.165 60.1184 205.142 55.7989Z" fill="white"/>
<path d="M188.785 55.4834L189.108 55.6138L190.055 55.9845L190.741 56.259C191.002 56.3414 191.297 56.41 191.613 56.4992L192.636 56.7738C193.027 56.8708 193.423 56.9464 193.823 57.0002C195.863 57.3589 197.946 57.4029 200 57.1306C202.732 56.8035 205.375 55.9505 207.783 54.6186L208.792 54.049C209.115 53.8362 209.437 53.596 209.76 53.3626C210.082 53.1293 210.446 52.9165 210.734 52.6763L211.675 51.8664L212.54 51.0497L212.588 50.9948C212.883 50.6928 213.178 50.377 213.473 50.0682C213.768 49.7593 214.015 49.3819 214.29 49.0455C214.574 48.6845 214.835 48.3063 215.072 47.9131C215.582 47.1576 216.041 46.3688 216.445 45.5521C216.644 45.1334 216.877 44.7216 217.056 44.2892L217.742 42.4635L217.818 42.2645L218.003 41.5781C218.119 41.1046 218.264 40.6379 218.367 40.1574C218.556 39.1782 218.682 38.1878 218.744 37.1924C218.813 36.1732 218.813 35.1506 218.744 34.1313C218.703 33.6166 218.614 33.1018 218.545 32.5871C218.504 32.3263 218.49 32.0655 218.428 31.8046L218.243 31.0359C218.073 30.2016 217.844 29.3805 217.557 28.5788C217.399 28.1808 217.234 27.7827 217.076 27.3777L216.445 26.1149L216.239 25.758L215.834 25.0716L215.422 24.3853L214.949 23.699L214.468 23.0126L214.228 22.6694L213.953 22.3469L211.785 20.0545L211.627 19.9035C208.177 16.7923 203.805 14.8932 199.176 14.4951H198.977H195.8H195.381L194.962 14.5569L194.139 14.6667L193.315 14.7834L192.512 14.9756L191.716 15.1677L191.318 15.2638L190.007 15.7099L188.799 16.1835C188.013 16.5144 187.249 16.8973 186.513 17.3297L185.827 17.7278C185.601 17.8582 185.395 18.0229 185.182 18.167C184.756 18.4759 184.324 18.7642 183.912 19.0799C182.345 20.3566 180.949 21.8308 179.76 23.4656C179.478 23.8637 179.231 24.2892 178.971 24.701L178.586 25.3119C178.55 25.3667 178.518 25.424 178.49 25.4834C178.202 26.0737 177.914 26.6502 177.625 27.2268C177.433 27.6591 177.289 28.1053 177.124 28.5377C176.801 29.3923 176.537 30.2683 176.335 31.1595C176.226 31.5909 176.143 32.0287 176.088 32.4704C176.026 32.9028 175.937 33.3352 175.903 33.7676C175.868 34.2 175.848 34.6324 175.827 35.0579V36.307C175.827 36.7257 175.861 37.1375 175.875 37.5493C175.889 37.9611 175.978 38.3523 176.019 38.7504C176.061 39.1485 176.122 39.5329 176.191 39.9172L176.459 41.0428C177.116 43.7133 178.281 46.2323 179.89 48.4622C181.097 50.1461 182.552 51.6365 184.207 52.8822C184.516 53.1295 184.84 53.3587 185.175 53.5685L186.074 54.1313C186.356 54.2961 186.61 54.4676 186.85 54.598L187.536 54.9275L188.456 55.3667L188.772 55.5109L188.47 55.3462L187.564 54.8794L186.877 54.5431C186.637 54.4059 186.383 54.2343 186.109 54.0627L185.216 53.4999C184.887 53.2874 184.568 53.0583 184.262 52.8136C182.645 51.5355 181.231 50.0198 180.069 48.318C178.459 46.1057 177.294 43.6024 176.637 40.9467C176.548 40.5761 176.459 40.2055 176.376 39.828C176.294 39.4505 176.266 39.0593 176.211 38.6681C176.145 38.2727 176.099 37.8741 176.074 37.4738C176.074 37.0757 176.04 36.6639 176.026 36.2521C176.012 35.8403 176.026 35.3874 176.026 35.0648V35.003L176.109 33.7333C176.143 33.3009 176.232 32.8822 176.294 32.4498C176.352 32.0132 176.435 31.5802 176.541 31.1526C176.753 30.2634 177.026 29.3897 177.358 28.5377C177.522 28.1121 177.667 27.666 177.859 27.2473C178.14 26.6708 178.428 26.0943 178.717 25.5109C178.717 25.456 178.778 25.4011 178.813 25.3462C178.936 25.1471 179.067 24.9481 179.19 24.7422C179.451 24.3373 179.698 23.9186 179.98 23.5205C180.558 22.725 181.189 21.9684 181.867 21.2556C182.56 20.5187 183.303 19.8307 184.091 19.1966C184.496 18.8808 184.928 18.5994 185.347 18.2974C185.559 18.1533 185.759 17.9817 185.985 17.8582L186.671 17.467C187.588 16.9481 188.537 16.4896 189.513 16.0943L191.036 15.5795L191.421 15.4491L191.812 15.353L192.601 15.1677L193.397 14.9756L194.214 14.8657L195.024 14.7491L195.436 14.6942H195.848H199.005H199.19C203.763 15.0868 208.083 16.9645 211.489 20.0408L211.64 20.1849L213.789 22.4567L214.063 22.7724L214.297 23.1087L214.777 23.795L215.244 24.4814L215.649 25.1677L216.054 25.8541L216.253 26.2041L216.417 26.5747C216.644 27.062 216.863 27.5493 217.104 28.0366C217.476 29.0245 217.783 30.0356 218.023 31.0634L218.202 31.8252C218.264 32.0792 218.277 32.34 218.319 32.5939C218.387 33.1087 218.476 33.6166 218.518 34.1245C218.59 35.1321 218.59 36.1436 218.518 37.1513C218.46 38.135 218.338 39.1139 218.154 40.0819C218.051 40.5624 217.914 41.0222 217.797 41.4546L217.612 42.141C217.597 42.2016 217.579 42.2612 217.557 42.3194L216.87 44.1313C216.692 44.5637 216.465 44.9687 216.273 45.3805C215.868 46.1921 215.409 46.9762 214.901 47.7278C214.662 48.0979 214.4 48.4532 214.118 48.7916C213.85 49.1348 213.597 49.4779 213.315 49.8074L212.437 50.7339L212.004 51.1869L211.963 51.2281L210.59 52.4018C210.288 52.6694 209.938 52.8753 209.623 53.0881C209.307 53.3009 208.984 53.5548 208.662 53.7744L207.667 54.3441C205.298 55.7155 202.684 56.613 199.973 56.9865C197.932 57.2699 195.861 57.2398 193.83 56.8973C193.433 56.8506 193.039 56.7819 192.649 56.6914L191.627 56.4237C191.311 56.3414 191.016 56.2796 190.755 56.1972L190.069 55.9364L189.108 55.5932L188.785 55.4834Z" fill="#263238"/>
<path d="M180.254 64.7767C179.511 64.642 178.832 64.2692 178.319 63.7145C177.807 63.1599 177.488 62.4536 177.413 61.7022C177.337 60.9508 177.507 60.1951 177.899 59.5492C178.29 58.9034 178.881 58.4024 179.582 58.1219C180.284 57.8415 181.057 57.7967 181.786 57.9944C182.515 58.1922 183.159 58.6217 183.623 59.2181C184.086 59.8145 184.343 60.5454 184.354 61.3005C184.365 62.0557 184.131 62.794 183.686 63.404C183.3 63.9315 182.773 64.3398 182.167 64.5825C181.56 64.8252 180.897 64.8925 180.254 64.7767Z" fill="white"/>
<path d="M179.485 64.5363C179.485 64.5363 179.554 64.5843 179.684 64.6392C179.882 64.7265 180.089 64.7888 180.302 64.8245C181.092 64.9782 181.91 64.8494 182.615 64.4608C183.14 64.173 183.584 63.7573 183.906 63.2522C184.227 62.747 184.416 62.1688 184.454 61.5713C184.512 60.8525 184.347 60.1334 183.981 59.5123C183.595 58.8505 183.006 58.3309 182.301 58.0305C181.596 57.73 180.813 57.6648 180.069 57.8444C179.404 57.9965 178.796 58.3358 178.318 58.8224C177.84 59.3089 177.512 59.9223 177.371 60.5898C177.254 61.1341 177.266 61.6981 177.406 62.237C177.603 63.0157 178.066 63.7007 178.717 64.1725C178.888 64.3019 179.075 64.4102 179.272 64.4951C179.403 64.5569 179.478 64.5843 179.478 64.5706C179.478 64.5569 179.204 64.4333 178.792 64.097C178.191 63.6134 177.77 62.9412 177.598 62.189C177.474 61.6793 177.474 61.1475 177.598 60.6379C177.733 60.0518 178.025 59.5134 178.442 59.0799C178.897 58.596 179.488 58.261 180.137 58.119C180.827 57.9666 181.547 58.0338 182.196 58.3112C182.848 58.5917 183.394 59.0725 183.754 59.6838C184.096 60.2541 184.256 60.9147 184.214 61.5781C184.178 62.1397 184.005 62.6838 183.709 63.1625C183.414 63.6412 183.005 64.04 182.519 64.3235C181.849 64.7048 181.072 64.8544 180.309 64.749C179.78 64.6461 179.499 64.5157 179.485 64.5363Z" fill="#263238"/>
<path d="M191.249 32.285H194.482C194.482 31.9181 194.555 31.5548 194.698 31.2167C194.84 30.8786 195.049 30.5725 195.312 30.3166C195.575 30.0606 195.887 29.86 196.229 29.7266C196.571 29.5931 196.936 29.5296 197.303 29.5397C197.847 29.5186 198.384 29.6679 198.839 29.9669C199.295 30.2659 199.645 30.6996 199.842 31.2075C200.013 31.632 200.08 32.0907 200.04 32.5464C199.999 33.002 199.851 33.4416 199.609 33.8293C199.06 34.7353 197.859 35.5589 195.676 35.202V42.4429H198.874V38.1464C200.188 37.7616 201.338 36.9561 202.149 35.8537C202.96 34.7514 203.387 33.4131 203.363 32.0448C203.363 27.3159 199.121 26.2178 197.303 26.2178C195.916 26.2452 191.187 26.5747 191.249 32.285Z" fill="#263238"/>
<path d="M198.915 43.9458H195.669V46.9794H198.915V43.9458Z" fill="#263238"/>
<path d="M79.2451 224.996C79.2451 224.996 73.3837 219.505 71.1256 218.03C68.8676 216.554 63.8161 214.557 61.9287 214.371C60.0412 214.186 51.208 216.746 51.208 216.746C51.208 216.746 38.1675 215.593 35.9781 217.117C33.7887 218.64 33.9671 220.219 34.8868 221.379C35.8065 222.539 39.3274 222.168 43.2259 222.23C47.1243 222.292 48.1607 222.656 48.1607 222.656L42.4983 228.688L57.2135 232.772L66.1359 232.436L69.3617 236.499L79.2451 224.996Z" fill="#FFBF9D"/>
<path d="M34.564 211.372L34.9209 224.358L35.5454 225.971L41.9559 233.788L57.5907 232.752L45.1336 227.899L40.7067 224.536L38.9909 218.984C38.9909 218.984 39.5125 210.418 34.564 211.372Z" fill="#FFBF9D"/>
<path d="M35.6486 226.273H31.8188C31.8188 226.273 26.8497 218.098 22.3061 220.878L23.3493 222.491C23.3493 222.491 21.2903 221.564 20 223.287L32.5326 234.269H33.1091L46.4585 233.411L35.6486 226.273Z" fill="#FFBF9D"/>
<path d="M37.9205 228.757C37.5624 228.792 37.2027 228.805 36.843 228.799C35.9368 228.807 35.0405 228.987 34.2006 229.327L34.077 229.389L33.9947 229.272C33.6035 228.723 33.1299 228.14 32.622 227.529C31.6131 226.273 30.6934 225.14 29.9247 224.193C29.5313 223.75 29.1755 223.275 28.8608 222.772C29.3297 223.145 29.7556 223.568 30.1306 224.035C30.865 224.852 31.8602 225.998 32.9171 227.309C33.4113 227.927 33.878 228.51 34.2898 229.094L34.077 229.039C34.9615 228.687 35.914 228.539 36.8636 228.606C37.2224 228.587 37.5815 228.638 37.9205 228.757Z" fill="#FF9A6C"/>
<path d="M65.0033 221.201C63.491 221.715 62.0183 222.339 60.597 223.068C59.2421 223.914 57.9527 224.862 56.7397 225.902C56.9912 225.499 57.3038 225.138 57.6663 224.831C58.4913 224.032 59.4137 223.341 60.4117 222.772C61.4122 222.203 62.4797 221.761 63.5894 221.455C64.0437 221.293 64.5213 221.207 65.0033 221.201Z" fill="#FF9A6C"/>
<path d="M52.5122 217.837C51.9715 218.612 51.3727 219.344 50.7208 220.027C50.1605 220.79 49.5409 221.509 48.8677 222.175C49.2533 221.299 49.7873 220.495 50.4463 219.8C51.0173 219.032 51.7161 218.368 52.5122 217.837Z" fill="#FF9A6C"/>
<path d="M39.4579 230.569C39.3507 230.48 39.252 230.381 39.1628 230.274L38.3529 229.375L37.0969 227.934L36.3145 227.034C36.0056 226.703 35.7211 226.35 35.4634 225.978C34.884 225.094 34.5718 224.062 34.5643 223.006C34.5643 221.901 34.5163 220.72 34.4957 219.478C34.4545 216.986 34.4064 214.248 34.3584 211.372V211.214H34.5025L34.9212 211.159C35.3824 211.105 35.85 211.157 36.2879 211.312C36.7258 211.466 37.1223 211.72 37.4469 212.052C38.0284 212.701 38.4512 213.476 38.6823 214.317C39.0849 215.842 39.2424 217.422 39.1491 218.997V218.943C39.7874 221.043 40.3502 222.923 40.8306 224.502L40.7826 224.44L44.0015 226.959L44.8594 227.645C44.9623 227.719 45.0567 227.805 45.1408 227.899C45.1408 227.899 45.0241 227.844 44.8182 227.7L43.926 227.062L40.6384 224.632V224.591C40.1443 223.019 39.554 221.159 38.8883 219.052V218.997C38.9648 217.46 38.8003 215.92 38.4009 214.433C38.198 213.643 37.8124 212.912 37.2753 212.299C36.9865 212.005 36.6337 211.781 36.2445 211.646C35.8553 211.51 35.4401 211.466 35.031 211.516L34.6535 211.564L34.7977 211.386C34.8388 214.262 34.8732 217 34.9006 219.492C34.9281 221.983 34.6192 224.296 35.7448 225.868C35.9692 226.224 36.2168 226.566 36.4861 226.89L37.2479 227.81C37.7146 228.373 38.1195 228.867 38.4559 229.286L39.2108 230.226C39.3069 230.33 39.3899 230.445 39.4579 230.569Z" fill="#FF9A6C"/>
<path d="M33.1366 234.275C32.893 234.298 32.6493 234.232 32.4503 234.09C31.9119 233.764 31.4182 233.37 30.9815 232.916C29.5533 231.436 28.2408 229.848 27.0556 228.167C25.6418 226.204 24.4544 224.406 23.5827 223.081C23.1641 222.395 22.8346 221.873 22.615 221.489C22.4816 221.302 22.3775 221.096 22.3062 220.878C22.4692 221.038 22.6121 221.218 22.7317 221.413L23.7955 222.937C24.6946 224.234 25.9232 226.019 27.337 227.954C28.5151 229.628 29.7892 231.232 31.1531 232.758C31.5645 233.217 32.0248 233.629 32.5258 233.987C32.7204 234.101 32.9248 234.198 33.1366 234.275Z" fill="#FF9A6C"/>
<path d="M55.9437 225.895L49.0459 225.428L46.9869 219.78L46.6094 215.978C46.5288 215.078 46.1143 214.24 45.4475 213.631C44.7806 213.021 43.9097 212.683 43.0061 212.683H42.9375L43.3219 221.997L44.7426 227.783L50.35 231.091H57.2134L55.9437 225.895Z" fill="#FFBF9D"/>
<path d="M55.9437 225.895L49.0459 225.428L46.9869 219.78L46.6094 215.978C46.5288 215.078 46.1143 214.24 45.4475 213.631C44.7806 213.021 43.9097 212.683 43.0061 212.683H42.9375L43.3219 221.997L44.7426 227.783L50.35 231.091" fill="#FFBF9D"/>
<path d="M50.35 231.091C50.2093 231.037 50.0738 230.97 49.9451 230.892L48.8195 230.267L44.7015 227.893H44.6534V227.844C44.2347 226.184 43.7474 224.221 43.2052 222.065V222.031C43.0817 219.231 42.9444 216.067 42.8003 212.718V212.539H42.9787C43.0405 212.539 43.116 212.539 43.1846 212.539C44.0143 212.568 44.8112 212.87 45.4524 213.397C46.0937 213.924 46.5437 214.648 46.733 215.456C46.814 215.829 46.8668 216.208 46.8909 216.588L46.9938 217.687C47.0693 218.373 47.1311 219.114 47.1997 219.794V219.753C47.9547 221.86 48.6342 223.768 49.2588 225.422L49.1421 225.332L54.1867 225.731L55.5594 225.861C55.7191 225.868 55.8777 225.891 56.033 225.93C55.8732 225.946 55.7122 225.946 55.5525 225.93L54.1798 225.868L49.1352 225.586H48.9774V225.511C48.3665 223.864 47.6665 221.963 46.9183 219.869V219.828C46.8497 219.142 46.7742 218.455 46.6987 217.721C46.6644 217.357 46.6232 216.993 46.5889 216.623C46.5641 216.258 46.5136 215.896 46.4379 215.538C46.2653 214.806 45.8567 214.151 45.2751 213.673C44.6934 213.196 43.971 212.923 43.219 212.896H42.9376L43.1091 212.711C43.2395 216.053 43.37 219.224 43.4798 222.024C44.0014 224.186 44.4681 226.142 44.8525 227.817L44.7907 227.735L48.8675 230.205L49.9657 230.892C50.1019 230.941 50.2312 231.008 50.35 231.091Z" fill="#FF9A6C"/>
<path d="M203.693 115.991C197.783 93.4587 192.327 67.2611 159.376 69.5946C159.376 69.5946 139.074 73.4999 129.437 88.4828C123.761 97.2954 118.847 135.291 117.872 165.298C117.831 166.52 118.339 175.037 118.305 176.232L205.511 183.493H221.249C221.249 183.493 220.268 167.577 215.532 152.134C210.899 137.124 205.786 123.939 203.693 115.991Z" fill="#263238"/>
<path d="M154.997 78.1807L157.056 76.2109L179.327 85.1883C180.882 85.2751 182.348 85.9413 183.435 87.0556C184.523 88.1698 185.153 89.6512 185.202 91.2075L185.003 163.781C185.003 168.702 184.049 172.965 181.077 176.884L177.948 181.002C170.817 190.418 156.143 189.643 150.494 179.272C150.154 178.681 149.891 178.049 149.712 177.391C149.57 176.858 149.457 176.317 149.375 175.772C148.689 169.931 148.689 164.866 148.689 164.866C148.291 158.455 148.161 155.827 148.161 155.888C148.161 155.95 134.516 154.317 130.83 136.808C128.998 128.098 129.341 116.115 129.856 104.323C130.556 88.0229 141.881 78.1601 154.997 78.1807Z" fill="#FFBF9D"/>
<path d="M160.728 115.984C160.753 116.574 161.007 117.131 161.436 117.536C161.866 117.941 162.436 118.163 163.027 118.153C163.316 118.162 163.604 118.113 163.874 118.009C164.143 117.905 164.39 117.748 164.598 117.547C164.806 117.346 164.971 117.106 165.085 116.839C165.198 116.573 165.257 116.287 165.257 115.998C165.232 115.409 164.979 114.852 164.552 114.446C164.124 114.04 163.555 113.817 162.965 113.822C162.675 113.813 162.386 113.862 162.116 113.967C161.845 114.071 161.598 114.229 161.389 114.43C161.181 114.632 161.015 114.873 160.901 115.14C160.787 115.407 160.728 115.694 160.728 115.984Z" fill="#263238"/>
<path d="M137.474 116.588C137.496 117.179 137.748 117.737 138.176 118.144C138.605 118.551 139.176 118.773 139.766 118.764C140.056 118.772 140.344 118.723 140.613 118.618C140.883 118.514 141.129 118.357 141.338 118.156C141.546 117.956 141.712 117.715 141.827 117.45C141.941 117.184 142.001 116.898 142.004 116.609C141.981 116.018 141.727 115.459 141.298 115.053C140.868 114.646 140.296 114.424 139.705 114.433C139.416 114.424 139.128 114.473 138.858 114.577C138.588 114.681 138.342 114.838 138.134 115.039C137.926 115.24 137.76 115.481 137.647 115.747C137.534 116.013 137.475 116.299 137.474 116.588Z" fill="#263238"/>
<path d="M132.176 109.004C132.471 109.286 134.118 107.927 136.554 107.817C138.991 107.707 140.837 108.826 141.091 108.503C141.215 108.366 140.899 107.817 140.096 107.316C139.003 106.64 137.728 106.317 136.445 106.389C135.178 106.446 133.963 106.908 132.979 107.707C132.258 108.332 132.025 108.881 132.176 109.004Z" fill="#263238"/>
<path d="M156.335 108.153C156.657 108.4 158.167 106.884 160.577 106.52C162.986 106.156 164.942 107.09 165.154 106.753C165.264 106.602 164.9 106.115 164.043 105.676C162.888 105.116 161.59 104.924 160.323 105.127C159.066 105.316 157.903 105.9 157.001 106.794C156.355 107.467 156.184 108.064 156.335 108.153Z" fill="#263238"/>
<path d="M148.387 126.987C148.387 126.849 146.863 126.664 144.392 126.472C143.768 126.438 143.171 126.348 143.02 125.93C142.932 125.289 143.045 124.637 143.342 124.063C143.85 122.526 144.386 120.919 144.941 119.259C147.158 112.395 148.73 106.753 148.456 106.664C148.181 106.575 146.156 112.079 143.939 118.95C143.404 120.645 142.896 122.258 142.416 123.802C142.217 124.523 141.853 125.346 142.217 126.259C142.317 126.474 142.465 126.663 142.649 126.812C142.833 126.96 143.049 127.065 143.28 127.117C143.63 127.193 143.987 127.225 144.344 127.213C146.849 127.193 148.38 127.131 148.387 126.987Z" fill="#263238"/>
<path d="M148.147 155.902C156.47 155.615 164.549 153.02 171.483 148.407C171.483 148.407 166.157 160.926 148.408 160.164L148.147 155.902Z" fill="#FF9A6C"/>
<path d="M155.998 131.942C155.642 131.533 155.207 131.2 154.719 130.964C154.23 130.728 153.699 130.594 153.157 130.569C151.626 130.48 150.549 130.672 149.725 131.88C149.565 132.178 149.467 132.506 149.437 132.844C149.408 133.181 149.447 133.521 149.554 133.843C149.732 134.124 149.602 134.131 149.876 134.33C150.872 135.028 151.997 135.52 153.184 135.779C154.365 136.046 155.724 135.779 156.335 134.811C156.576 134.355 156.673 133.836 156.613 133.324C156.553 132.812 156.338 132.33 155.998 131.942Z" fill="#FF9A6C"/>
<path d="M155.751 96.9865C156.067 97.6042 158.16 96.9865 160.741 96.9179C163.322 96.8493 165.47 97.3297 165.717 96.6914C165.827 96.3894 165.374 95.8266 164.454 95.3187C163.267 94.7009 161.941 94.4006 160.604 94.4471C159.282 94.474 157.992 94.8506 156.863 95.5383C155.998 96.1011 155.614 96.6845 155.751 96.9865Z" fill="#263238"/>
<path d="M132.526 104.598C132.979 105.126 134.633 104.467 136.644 104.344C138.655 104.22 140.384 104.522 140.762 103.925C140.92 103.637 140.625 103.095 139.849 102.607C138.819 102.018 137.633 101.762 136.452 101.873C135.267 101.95 134.137 102.397 133.219 103.15C132.526 103.754 132.32 104.337 132.526 104.598Z" fill="#263238"/>
<path d="M184.756 122.182C184.756 122.182 175.381 124.447 162.107 95.7921C157.577 86.0392 148.785 76.2108 148.785 76.2108L157.021 75.0234C157.021 75.0234 181.627 81.9555 182.038 82.2643C182.45 82.5732 188.25 94.9891 188.25 94.9891L184.756 122.182Z" fill="#263238"/>
<path d="M181.682 121.036C181.62 119.718 182.986 116.54 184.269 116.273C187.701 115.586 193.974 115.525 194.475 124.33C195.161 136.362 182.938 134.564 182.897 134.22C182.855 133.877 181.901 125.573 181.682 121.036Z" fill="#FFBF9D"/>
<path d="M186.314 129.43C186.362 129.389 186.527 129.567 186.891 129.712C187.403 129.895 187.966 129.873 188.462 129.65C189.705 129.114 190.659 127.035 190.597 124.845C190.566 123.811 190.308 122.797 189.842 121.874C189.708 121.504 189.486 121.174 189.195 120.909C188.905 120.645 188.554 120.455 188.174 120.357C187.929 120.306 187.674 120.343 187.453 120.461C187.233 120.579 187.06 120.77 186.966 121.002C186.822 121.345 186.918 121.585 186.849 121.606C186.781 121.626 186.582 121.421 186.65 120.92C186.7 120.617 186.853 120.34 187.083 120.137C187.239 120.003 187.42 119.901 187.615 119.837C187.811 119.774 188.017 119.75 188.222 119.766C188.722 119.835 189.196 120.03 189.599 120.334C190.001 120.638 190.319 121.041 190.521 121.503C191.09 122.518 191.403 123.655 191.434 124.818C191.496 127.248 190.384 129.588 188.689 130.185C188.371 130.297 188.033 130.337 187.698 130.301C187.363 130.266 187.04 130.156 186.753 129.979C186.348 129.746 186.245 129.478 186.314 129.43Z" fill="#FF9A6C"/>
<path d="M157.55 132.429C157.516 132.738 155.456 132.69 153.02 133.164C150.583 133.637 148.675 134.399 148.524 134.131C148.373 133.864 150.179 132.601 152.821 132.113C155.463 131.626 157.605 132.175 157.55 132.429Z" fill="#263238"/>
<path d="M251.579 225.669C251.579 225.669 261.654 217.041 264.578 216.808C267.502 216.575 275.175 218.009 275.175 218.009C275.175 218.009 280.027 218.05 282.437 217.748C284.952 217.349 287.522 217.475 289.986 218.119C290.714 218.338 291.627 220.144 289.485 221.379C288.579 221.901 279.767 222.498 279.767 222.498L301.812 228.791L298.95 231.152C298.563 231.473 298.08 231.655 297.577 231.667L265.861 232.793L264.406 236.341L251.579 225.669Z" fill="#FFBF9D"/>
<path d="M275.642 225.675H285.937C285.937 225.675 289.547 220.871 290.851 218.888C291.997 217.137 293.37 216.623 294.571 217.034C294.884 217.149 295.145 217.373 295.305 217.666C295.42 217.876 295.48 218.112 295.48 218.352C295.48 218.592 295.42 218.828 295.305 219.039L290.775 227.487L293.15 226.691C293.15 226.691 297.9 222.038 298.826 220.96C299.753 219.883 303.13 215.353 306.122 218.654L302.004 223.266L306.122 220.343C306.122 220.343 309.43 217.501 311.194 220.885L298.84 231.29" fill="#FFBF9D"/>
<path d="M264.921 221.4C265.052 221.336 265.19 221.287 265.333 221.256C265.732 221.121 266.143 221.027 266.561 220.974C268.117 220.766 269.7 220.931 271.18 221.455C272.214 221.812 273.21 222.272 274.152 222.827C274.66 223.129 275.175 223.459 275.696 223.822L276.479 224.378C276.726 224.557 277.035 224.79 277.234 224.9C279.842 225.099 282.828 225.277 285.95 225.497L285.799 225.559C286.767 224.413 287.714 223.164 288.634 221.866C288.998 221.358 289.32 220.844 289.67 220.336C290.02 219.828 290.316 219.299 290.686 218.819C291.04 218.32 291.444 217.86 291.894 217.446C292.123 217.247 292.374 217.074 292.642 216.932C292.929 216.766 293.259 216.692 293.589 216.719H293.528C293.811 216.671 294.101 216.681 294.381 216.748C294.66 216.816 294.923 216.939 295.154 217.11C295.359 217.305 295.515 217.547 295.61 217.814C295.704 218.081 295.734 218.367 295.696 218.647V218.682C293.734 222.196 292.025 225.257 290.707 227.604C290.563 228.038 290.325 228.435 290.011 228.767C289.697 229.099 289.313 229.358 288.888 229.526C288.274 229.781 287.617 229.921 286.952 229.938C286.543 229.96 286.133 229.96 285.724 229.938C285.581 229.942 285.438 229.928 285.298 229.897H285.724C285.998 229.897 286.41 229.897 286.946 229.849C287.591 229.81 288.225 229.659 288.819 229.402C289.211 229.236 289.563 228.988 289.85 228.674C290.138 228.36 290.355 227.988 290.487 227.584L295.374 218.572V218.634C295.403 218.407 295.379 218.177 295.304 217.962C295.229 217.746 295.105 217.551 294.941 217.391C294.541 217.114 294.048 217.006 293.569 217.089H293.514C293.272 217.086 293.034 217.15 292.828 217.275C292.578 217.4 292.347 217.56 292.141 217.748C291.707 218.134 291.318 218.566 290.981 219.039C290.295 220 289.677 221.098 288.922 222.086C287.996 223.397 287.042 224.639 286.06 225.799L286.005 225.868H285.916C282.773 225.634 279.849 225.456 277.158 225.216C276.851 225.053 276.561 224.86 276.294 224.639L275.518 224.083C275.01 223.719 274.502 223.397 274.008 223.088C273.086 222.534 272.111 222.075 271.098 221.715C269.652 221.179 268.102 220.982 266.568 221.139C266.156 221.181 265.748 221.255 265.346 221.358C265.206 221.382 265.064 221.396 264.921 221.4Z" fill="#FF9A6C"/>
<path d="M306.142 218.654C306.037 218.86 305.903 219.049 305.744 219.217C305.463 219.567 305.058 220.068 304.543 220.672C303.527 221.894 302.1 223.562 300.501 225.387C298.902 227.213 297.529 228.943 296.341 230.027C295.886 230.466 295.389 230.862 294.859 231.207C294.671 231.347 294.456 231.445 294.228 231.496C294.403 231.348 294.589 231.213 294.783 231.091C295.27 230.707 295.729 230.29 296.156 229.842C297.275 228.73 298.579 226.966 300.212 225.161C301.846 223.356 303.274 221.688 304.33 220.507L305.607 219.135C305.764 218.952 305.944 218.79 306.142 218.654Z" fill="#FF9A6C"/>
<path d="M300.494 219.135C300.13 219.667 299.711 220.159 299.245 220.604C298.442 221.482 297.309 222.663 296.047 223.98C295.01 225.051 294.042 226.039 293.301 226.787C292.483 227.118 291.628 227.349 290.755 227.474C290.975 227.364 291.205 227.274 291.441 227.206L293.239 226.52L293.185 226.554C293.926 225.758 294.873 224.763 295.93 223.699C297.193 222.395 298.353 221.228 299.204 220.398C299.598 219.941 300.029 219.519 300.494 219.135Z" fill="#FF9A6C"/>
<path d="M217.419 174.454C217.419 174.454 232.217 178.27 233.665 198.38C234.495 209.842 228.394 246.65 228.394 246.65L250.247 224.207L269.725 237.755C269.725 237.755 243.212 270.13 237.117 275.024C231.022 279.917 221.249 287.728 218.092 287.09C214.935 286.451 214.921 271.846 214.921 271.846V191.201L217.419 174.454Z" fill="#6897A4"/>
<path d="M111.036 176.918C111.036 176.918 97.8725 181.249 98.3941 206.987C98.9157 232.724 98.5108 241.365 98.5108 241.365L78.7785 220.48L62.4023 238.558C62.4023 238.558 80.7414 265.806 93.5691 279.052C105.662 291.523 116.411 280.693 119.904 271.921C122.732 264.818 125.01 237.803 125.01 237.803L111.036 176.918Z" fill="#6897A4"/>
<g opacity="0.3">
<path d="M218.566 220.782C219.76 213.232 220.076 205.058 216.637 198.133C208.202 218.984 208.579 242.93 211.599 265.023L218.284 284.138C222.498 271.331 218.497 257.686 218.586 244.33C218.641 236.719 217.378 228.311 218.566 220.782Z" fill="black"/>
</g>
<path d="M108.298 193.294C108.298 193.294 117.097 252.484 118.799 257.666C120.501 262.848 120.501 278.126 120.501 278.126C120.501 278.126 111.27 295.326 110.7 307.275L221.935 307.508L214.708 258.387C214.478 255.285 214.423 252.174 214.544 249.066C215.01 240.411 215.676 221.86 218.161 210.453C221.043 197.192 217.158 174.502 217.158 174.502L183.933 166.314C176.067 177.618 156.479 177.769 148.71 166.314L111.208 176.918L108.298 193.294Z" fill="#6897A4"/>
<path d="M216.891 256.039C216.971 255.847 217.082 255.668 217.22 255.511C217.453 255.188 217.803 254.722 218.243 254.138C219.384 252.65 220.662 251.272 222.059 250.02C223.48 248.798 225.065 247.779 226.767 246.993C227.453 246.705 227.961 246.486 228.339 246.362C228.532 246.279 228.735 246.221 228.943 246.19C229.018 246.335 225.573 247.44 222.292 250.308C220.917 251.546 219.629 252.876 218.435 254.289C217.962 254.909 217.446 255.494 216.891 256.039Z" fill="#263238"/>
<path d="M113.885 254.783C113.816 254.783 113.562 253.582 112.718 251.777C111.63 249.42 110.041 247.328 108.061 245.649C106.081 243.969 103.759 242.741 101.256 242.052C99.3342 241.516 98.085 241.461 98.0987 241.365C98.3882 241.329 98.681 241.329 98.9704 241.365C99.7624 241.434 100.547 241.567 101.318 241.763C103.888 242.396 106.277 243.615 108.298 245.325C110.308 247.044 111.9 249.199 112.951 251.626C113.268 252.355 113.527 253.108 113.727 253.877C113.819 254.171 113.872 254.476 113.885 254.783Z" fill="#263238"/>
<path d="M114.598 222.711C114.415 222.648 114.243 222.555 114.091 222.436C113.782 222.244 113.342 221.942 112.814 221.544C111.447 220.508 110.168 219.36 108.991 218.112C107.821 216.865 106.723 215.552 105.704 214.179C105.248 213.632 104.848 213.042 104.509 212.416C105.004 212.918 105.463 213.454 105.882 214.022C106.719 215.03 107.872 216.417 109.238 217.865C110.407 219.099 111.649 220.261 112.958 221.345C113.53 221.769 114.078 222.225 114.598 222.711Z" fill="#263238"/>
<path d="M192.244 254.749C192.244 254.749 192.244 254.797 192.155 254.886L191.867 255.264C191.592 255.586 191.228 256.094 190.693 256.685C189.207 258.382 187.602 259.972 185.889 261.441C183.336 263.631 180.617 265.618 177.756 267.385C174.262 269.532 170.653 271.487 166.946 273.239C163.006 275.113 159.204 276.781 155.758 278.332C152.313 279.883 149.231 281.304 146.685 282.587C144.139 283.87 142.107 284.969 140.721 285.765C140.034 286.149 139.499 286.451 139.135 286.684L138.716 286.918C138.62 286.966 138.572 286.993 138.565 286.986C138.603 286.947 138.647 286.915 138.696 286.89L139.094 286.623C139.451 286.396 139.966 286.053 140.652 285.641C142.025 284.811 144.029 283.665 146.568 282.361C149.108 281.056 152.189 279.615 155.628 278.03C159.066 276.444 162.862 274.79 166.788 272.916C170.485 271.168 174.089 269.228 177.584 267.103C180.435 265.367 183.151 263.419 185.71 261.276C187.438 259.832 189.068 258.275 190.59 256.616C191.139 256.046 191.524 255.552 191.805 255.243L192.128 254.893L192.244 254.749Z" fill="#263238"/>
<path d="M110.954 306.348V306.204C110.954 306.087 110.954 305.95 110.954 305.772C110.954 305.374 111.016 304.818 111.057 304.097C111.322 302.01 111.741 299.945 112.313 297.92C114.422 290.824 117.294 283.978 120.879 277.501V277.59C120.432 271.153 119.767 263.96 118.998 256.396C117.529 242.107 115.992 229.203 114.88 219.855C114.317 215.202 113.857 211.427 113.507 208.799C113.356 207.508 113.24 206.492 113.15 205.785L113.068 205.003C113.059 204.914 113.059 204.824 113.068 204.735C113.096 204.82 113.114 204.907 113.123 204.996C113.15 205.188 113.192 205.449 113.246 205.779C113.343 206.465 113.487 207.488 113.665 208.778C114.015 211.407 114.509 215.175 115.127 219.828C116.314 229.162 117.872 242.065 119.362 256.355C120.13 263.905 120.789 271.125 121.208 277.57V277.618V277.659C117.621 284.11 114.72 290.919 112.553 297.975C111.954 299.988 111.495 302.041 111.181 304.118C111.119 304.804 111.064 305.387 111.03 305.779C111.03 305.957 111.03 306.101 110.982 306.211C110.979 306.258 110.97 306.304 110.954 306.348Z" fill="#263238"/>
<path d="M219.526 194.674C219.536 194.772 219.536 194.871 219.526 194.969C219.526 195.181 219.526 195.463 219.526 195.834C219.526 196.588 219.526 197.707 219.464 199.142C219.389 202.017 219.094 206.17 218.579 211.29C218.064 216.41 217.337 222.484 216.582 229.238C215.827 235.991 215.085 243.424 214.852 251.262C214.689 258.626 215.197 265.989 216.369 273.26C217.357 279.986 218.524 285.991 219.423 291.057C220.322 296.122 221.022 300.219 221.407 303.067C221.613 304.495 221.729 305.607 221.812 306.355C221.812 306.719 221.873 307.041 221.894 307.213C221.903 307.311 221.903 307.41 221.894 307.508C221.865 307.414 221.847 307.318 221.839 307.22C221.839 307.007 221.77 306.726 221.716 306.369C221.613 305.614 221.475 304.509 221.242 303.088C220.823 300.247 220.109 296.149 219.183 291.098C218.256 286.046 217.055 280.041 216.046 273.308C214.854 266.018 214.335 258.634 214.495 251.249C214.735 243.397 215.497 235.957 216.259 229.203C217.021 222.45 217.803 216.376 218.318 211.262C218.833 206.149 219.19 202.011 219.313 199.135C219.403 197.7 219.409 196.588 219.437 195.834C219.437 195.463 219.437 195.181 219.437 194.969C219.457 194.868 219.487 194.769 219.526 194.674Z" fill="#263238"/>
<g opacity="0.3">
<path d="M113.391 207.357C111.493 226.312 113.691 245.454 119.835 263.486L113.391 207.357Z" fill="black"/>
</g>
<g opacity="0.3">
<path d="M182.196 272.937C173.768 280.679 165.312 287.295 154.941 290.981C162.759 291.667 170.645 288.654 176.685 283.651C182.725 278.647 187.028 273.356 189.794 266.039L182.196 272.937Z" fill="black"/>
</g>
<path d="M172.594 281.461C172.526 281.393 177.769 276.581 184.303 270.72C190.837 264.859 196.191 260.171 196.253 260.247C196.314 260.322 191.078 265.126 184.544 270.988C178.01 276.849 172.663 281.537 172.594 281.461Z" fill="#263238"/>
<path d="M191.235 136.211C191.235 137.063 190.983 137.895 190.509 138.603C190.036 139.31 189.364 139.862 188.577 140.188C187.79 140.513 186.925 140.598 186.09 140.431C185.255 140.265 184.488 139.854 183.886 139.252C183.285 138.649 182.876 137.882 182.71 137.046C182.545 136.211 182.631 135.346 182.958 134.559C183.285 133.773 183.837 133.102 184.546 132.63C185.255 132.158 186.087 131.906 186.939 131.908C187.503 131.908 188.063 132.019 188.584 132.235C189.106 132.452 189.58 132.769 189.979 133.169C190.378 133.568 190.695 134.043 190.91 134.565C191.126 135.087 191.236 135.646 191.235 136.211Z" fill="#455A64"/>
<path d="M216.843 192.724C215.575 182.2 214.308 171.677 213.041 161.153L185.827 152.917C185.299 171.695 182.011 192.779 177.289 210.96C187.356 214.219 197.995 215.327 208.518 214.214C208.975 209.135 209.433 204.056 209.89 198.977C210.567 202.807 211.254 206.634 211.949 210.459C214.804 208.86 216.486 205.655 217.056 202.45C217.625 199.245 217.234 196.005 216.843 192.724Z" fill="#263238"/>
<path d="M195.546 214.358C195.546 214.358 195.546 214.227 195.628 213.967C195.71 213.706 195.779 213.28 195.896 212.807C196.136 211.777 196.486 210.281 196.939 208.366C197.831 204.502 199.149 198.922 200.432 191.956C201.998 183.799 202.989 175.543 203.397 167.247C203.92 157.102 202.996 146.933 200.652 137.048C198.332 127.142 194.04 117.805 188.03 109.595C187.344 108.668 186.658 107.728 185.889 106.849C185.12 105.971 184.441 105.113 183.665 104.323L182.533 103.122L181.38 101.976C180.625 101.207 179.842 100.501 179.087 99.7867C176.033 96.959 173.047 94.4745 170.378 92.1409C167.708 89.8073 165.326 87.6591 163.349 85.6481C162.848 85.1471 162.395 84.6392 161.977 84.1725C161.558 83.7058 161.098 83.2322 160.714 82.7998C160.33 82.3674 159.938 81.9075 159.581 81.4889L158.614 80.2535C157.982 79.4848 157.509 78.7435 157.063 78.1189C156.616 77.4944 156.287 76.9453 156.019 76.4923L155.415 75.4765C155.278 75.2432 155.216 75.1196 155.216 75.1196C155.216 75.1196 155.299 75.2294 155.45 75.4559L156.081 76.458C156.356 76.8973 156.699 77.4463 157.152 78.0572C157.605 78.668 158.085 79.4299 158.724 80.1711L159.698 81.3928L160.837 82.69C161.229 83.1498 161.654 83.6097 162.114 84.0627C162.574 84.5156 163.02 85.0373 163.528 85.5246C165.505 87.5218 167.9 89.6426 170.577 91.9693C173.253 94.296 176.246 96.7737 179.321 99.5877C180.076 100.274 180.872 101.015 181.627 101.777L182.787 102.923L183.926 104.131C184.708 104.921 185.415 105.806 186.163 106.664C186.912 107.522 187.612 108.455 188.332 109.409C194.367 117.653 198.674 127.03 200.995 136.98C203.353 146.9 204.277 157.106 203.741 167.288C203.316 175.587 202.297 183.844 200.693 191.997C199.376 198.97 198.023 204.543 197.09 208.4C196.616 210.322 196.239 211.832 195.978 212.827C195.848 213.321 195.745 213.699 195.676 213.973C195.608 214.248 195.546 214.358 195.546 214.358Z" fill="#455A64"/>
</svg>
