<svg width="355" height="348" viewBox="0 0 355 348" fill="none" xmlns="http://www.w3.org/2000/svg">
<path d="M355 234.054H219.087V155.403H355V234.054ZM219.916 233.224H354.171V156.233H219.916V233.224Z" fill="#E0E0E0"/>
<path d="M326.962 197.341H237.29V199.97H326.962V197.341Z" fill="#F0F0F0"/>
<path d="M333.14 207.143H237.29V210.012H333.14V207.143Z" fill="#F0F0F0"/>
<path d="M333.14 217.062H237.29V219.931H333.14V217.062Z" fill="#F0F0F0"/>
<path d="M268.629 183.102H237.29V189.927H268.629V183.102Z" fill="#F0F0F0"/>
<path d="M354.585 155.818H219.527V168.34H354.585V155.818Z" fill="#E0E0E0"/>
<path d="M344.194 166.466C344.02 166.301 345.762 164.203 348.075 161.781C350.389 159.359 352.421 157.527 352.587 157.684C352.753 157.842 351.019 159.948 348.706 162.378C346.392 164.808 344.36 166.632 344.194 166.466Z" fill="white"/>
<path d="M352.603 166.466C352.438 166.632 350.414 164.807 348.092 162.378C345.77 159.948 344.037 157.85 344.211 157.684C344.385 157.518 346.4 159.342 348.722 161.781C351.044 164.219 352.761 166.3 352.603 166.466Z" fill="white"/>
<path d="M187.756 0.0683594H52.6973V77.8976H187.756V0.0683594Z" fill="#E6E6E6"/>
<path d="M160.141 41.5996H70.4692V44.2285H160.141V41.5996Z" fill="#F0F0F0"/>
<path d="M166.319 51.4019H70.4692V54.2712H166.319V51.4019Z" fill="#F0F0F0"/>
<path d="M166.319 61.3198H70.4692V64.1892H166.319V61.3198Z" fill="#F0F0F0"/>
<path d="M101.808 27.3604H70.4692V34.1854H101.808V27.3604Z" fill="#F0F0F0"/>
<path d="M187.756 0.0683594H52.6973V12.5907H187.756V0.0683594Z" fill="#E0E0E0"/>
<path d="M176.909 10.6584C176.735 10.5008 178.477 8.39441 180.79 5.97287C183.104 3.55133 185.136 1.71859 185.302 1.88445C185.468 2.05031 183.734 4.14842 181.421 6.56996C179.107 8.9915 177.075 10.8077 176.909 10.6584Z" fill="white"/>
<path d="M185.301 10.6584C185.136 10.8243 183.112 8.99983 180.79 6.57C178.468 4.14017 176.735 2.05035 176.909 1.88449C177.083 1.71863 179.098 3.54308 181.42 5.97291C183.742 8.40274 185.476 10.5009 185.301 10.6584Z" fill="white"/>
<path d="M136.605 144.647H0.717285V65.9888H136.605V144.647ZM1.54658 143.818H135.776V66.8181H1.54658V143.818Z" fill="#E0E0E0"/>
<path d="M108.575 107.935H18.9038V110.563H108.575V107.935Z" fill="#F0F0F0"/>
<path d="M114.754 117.737H18.9038V120.606H114.754V117.737Z" fill="#F0F0F0"/>
<path d="M114.754 127.655H18.9038V130.525H114.754V127.655Z" fill="#F0F0F0"/>
<path d="M50.2428 93.6958H18.9038V100.521H50.2428V93.6958Z" fill="#F0F0F0"/>
<path d="M136.191 66.4038H1.13184V78.9261H136.191V66.4038Z" fill="#E0E0E0"/>
<path d="M293.433 162.668H133.96V305.439H293.433V162.668Z" fill="#E6E6E6"/>
<path d="M141.979 117.695H17.0542V247.488H141.979V117.695Z" fill="#F0F0F0"/>
<path d="M141.979 117.695H17.0542V131.835H141.979V117.695Z" fill="#E0E0E0"/>
<path d="M27.3709 124.62C27.3482 125.133 27.1753 125.627 26.8739 126.043C26.5725 126.458 26.1557 126.776 25.6753 126.957C25.1949 127.137 24.6721 127.173 24.1716 127.059C23.6711 126.945 23.2151 126.687 22.8602 126.316C22.5052 125.946 22.2669 125.479 22.1748 124.974C22.0828 124.469 22.141 123.948 22.3423 123.476C22.5436 123.004 22.8791 122.601 23.3072 122.318C23.7353 122.035 24.2371 121.884 24.7503 121.883C25.4601 121.901 26.1341 122.198 26.6251 122.711C27.1161 123.224 27.3843 123.91 27.3709 124.62Z" fill="white"/>
<path d="M38.0104 124.62C37.9893 125.135 37.8171 125.633 37.5153 126.051C37.2135 126.469 36.7955 126.789 36.3132 126.971C35.8308 127.154 35.3056 127.19 34.8027 127.076C34.2999 126.962 33.8416 126.703 33.485 126.33C33.1284 125.958 32.8892 125.489 32.7971 124.982C32.7051 124.474 32.7642 123.951 32.9672 123.477C33.1702 123.003 33.5081 122.599 33.9389 122.316C34.3696 122.033 34.8742 121.882 35.3898 121.883C36.0996 121.901 36.7736 122.198 37.2646 122.711C37.7556 123.224 38.0238 123.91 38.0104 124.62Z" fill="white"/>
<path d="M48.6505 124.62C48.6294 125.135 48.4572 125.633 48.1554 126.051C47.8537 126.469 47.4356 126.789 46.9533 126.971C46.471 127.154 45.9457 127.19 45.4429 127.076C44.94 126.962 44.4818 126.703 44.1252 126.33C43.7686 125.958 43.5293 125.489 43.4373 124.982C43.3452 124.474 43.4044 123.951 43.6074 123.477C43.8104 123.003 44.1483 122.599 44.579 122.316C45.0098 122.033 45.5144 121.882 46.03 121.883C46.7397 121.901 47.4137 122.198 47.9048 122.711C48.3958 123.224 48.6639 123.91 48.6505 124.62Z" fill="white"/>
<path d="M337.162 28.4551H177.689V187.398H337.162V28.4551Z" fill="#F0F0F0"/>
<path d="M337.162 28.4551H177.689V47.0727H337.162V28.4551Z" fill="#E0E0E0"/>
<path d="M191.272 37.5772C191.243 38.254 191.016 38.9073 190.619 39.456C190.221 40.0048 189.671 40.4247 189.038 40.6637C188.404 40.9027 187.713 40.9502 187.053 40.8004C186.392 40.6506 185.79 40.31 185.321 39.821C184.852 39.3319 184.537 38.7159 184.416 38.0495C184.294 37.3831 184.371 36.6956 184.636 36.0723C184.902 35.4491 185.344 34.9176 185.909 34.5438C186.474 34.17 187.137 33.9704 187.814 33.9697C188.751 33.9915 189.64 34.3833 190.288 35.0594C190.936 35.7355 191.29 36.6408 191.272 37.5772Z" fill="white"/>
<path d="M204.267 35.1392C204.727 35.6384 205.03 36.2619 205.138 36.932C205.246 37.6021 205.154 38.2891 204.874 38.9074C204.594 39.5258 204.139 40.0481 203.564 40.4093C202.99 40.7706 202.321 40.9547 201.643 40.9389C200.964 40.9231 200.305 40.7079 199.748 40.3203C199.191 39.9326 198.761 39.3896 198.51 38.7589C198.259 38.1282 198.2 37.4377 198.339 36.7734C198.478 36.1091 198.809 35.5003 199.292 35.0231C199.968 34.3799 200.871 34.031 201.804 34.0527C202.736 34.0745 203.622 34.4652 204.267 35.1392Z" fill="white"/>
<path d="M219.286 37.5772C219.257 38.254 219.03 38.9073 218.632 39.456C218.235 40.0048 217.685 40.4247 217.051 40.6637C216.417 40.9027 215.727 40.9502 215.066 40.8004C214.406 40.6506 213.804 40.31 213.335 39.821C212.866 39.3319 212.551 38.7159 212.429 38.0495C212.308 37.3831 212.384 36.6956 212.65 36.0723C212.915 35.4491 213.358 34.9176 213.923 34.5438C214.488 34.17 215.151 33.9704 215.828 33.9697C216.764 33.9915 217.654 34.3833 218.302 35.0594C218.95 35.7355 219.304 36.6408 219.286 37.5772Z" fill="white"/>
<path d="M302.713 347.609C302.713 347.725 245.127 347.825 174.114 347.825C103.102 347.825 45.4907 347.725 45.4907 347.609C45.4907 347.493 103.069 347.394 174.114 347.394C245.16 347.394 302.713 347.501 302.713 347.609Z" fill="#263238"/>
<path d="M246.603 246.087C233.79 237.139 230.888 220.528 231.394 205.592C231.477 203.104 231.203 200.467 232.389 198.286C233.575 196.105 236.345 194.604 238.575 195.649C240.425 196.52 241.229 198.676 242.266 200.459C243.649 202.834 245.676 204.769 248.112 206.04C249.696 206.869 251.662 207.367 253.229 206.504C255.385 205.319 255.634 202.358 255.617 199.87C255.617 195.243 255.59 190.621 255.535 186.004C255.385 183.525 255.638 181.039 256.281 178.64C257.052 176.285 258.769 174.104 261.116 173.441C263.463 172.777 266.39 174.145 266.921 176.567C267.012 177.593 267.037 178.623 266.995 179.652C267.062 180.689 267.543 181.825 268.513 182.14C269.483 182.455 270.495 181.733 271.241 181.004C273.796 178.516 275.537 175.273 277.154 172.072C278.771 168.871 280.355 165.579 282.677 162.85C284.999 160.122 288.209 157.958 291.8 157.75C295.39 157.543 299.131 159.749 300.026 163.232C300.922 166.715 298.89 170.273 296.709 173.1C293.418 177.298 289.538 180.999 285.19 184.089C284.341 184.552 283.664 185.276 283.258 186.154C282.719 187.812 284.286 189.471 285.92 189.993C287.769 190.607 289.776 190.416 291.725 190.648C293.674 190.881 295.747 191.726 296.485 193.551C297.497 196.089 295.374 198.742 293.292 200.484C289.113 203.967 284.367 206.707 279.261 208.586C277.436 209.249 275.52 209.838 274.044 211.115C272.568 212.392 271.689 214.623 272.576 216.373C273.464 218.123 275.744 218.679 277.66 218.322C279.576 217.965 281.276 216.937 283.1 216.249C286.509 214.963 290.904 215.195 293.052 218.139C293.717 219.154 294.138 220.308 294.282 221.513C294.426 222.717 294.289 223.938 293.881 225.081C293.051 227.354 291.774 229.438 290.124 231.209C284.693 237.699 277.636 242.63 269.674 245.498C261.771 248.235 254.448 248.981 246.595 246.103" fill="#6897A4"/>
<path d="M296.377 159.799C296.377 159.799 296.303 159.882 296.137 160.031L295.399 160.686C294.752 161.267 293.798 162.113 292.596 163.232C289.186 166.398 286.021 169.816 283.125 173.457C281.276 175.754 279.36 178.358 277.32 181.186C275.28 184.014 273.174 187.066 271.084 190.309C268.856 193.728 266.816 197.266 264.972 200.907C264.01 202.806 263.164 204.788 262.293 206.812L259.723 212.99C256.334 220.772 253.382 228.737 250.882 236.849C248.868 243.485 247.48 250.296 246.736 257.191C246.253 261.845 246.176 266.531 246.504 271.198C246.636 272.856 246.761 274.125 246.877 274.988C246.927 275.402 246.96 275.734 246.993 275.975V276.315C246.957 276.207 246.932 276.096 246.918 275.983C246.877 275.742 246.827 275.419 246.761 275.004C246.611 274.175 246.454 272.865 246.305 271.206C245.904 266.531 245.932 261.828 246.388 257.158C247.086 250.233 248.444 243.391 250.443 236.724C252.922 228.59 255.865 220.605 259.258 212.807L261.895 206.654C262.766 204.639 263.62 202.64 264.591 200.733C266.447 197.081 268.504 193.534 270.752 190.11C272.875 186.792 275.015 183.79 277.03 180.987C279.045 178.184 280.994 175.564 282.835 173.275C285.76 169.643 288.968 166.249 292.43 163.124C293.657 162.021 294.636 161.192 295.299 160.636L296.07 160.014C296.165 159.932 296.268 159.86 296.377 159.799Z" fill="#263238"/>
<path d="M264.698 200.716C264.581 200.374 264.501 200.021 264.458 199.663C264.325 198.974 264.176 198.004 264.002 196.744C263.645 194.256 263.28 190.847 262.89 187.074C262.501 183.301 262.061 179.884 261.696 177.421C261.505 176.194 261.34 175.207 261.223 174.519C261.133 174.166 261.086 173.804 261.083 173.44C261.225 173.773 261.328 174.121 261.389 174.477C261.572 175.157 261.779 176.136 262.011 177.371C262.484 179.859 262.948 183.243 263.338 187.024C263.728 190.806 264.06 194.123 264.317 196.702C264.441 197.863 264.549 198.85 264.632 199.638C264.696 199.993 264.719 200.355 264.698 200.716Z" fill="#263238"/>
<path d="M296.609 194.762C296.206 194.85 295.795 194.9 295.382 194.911C294.553 194.986 293.375 195.085 291.916 195.251C288.996 195.566 284.983 196.147 280.579 196.976C276.176 197.805 272.22 198.742 269.375 199.464C267.957 199.829 266.813 200.16 266.058 200.384C265.655 200.528 265.238 200.628 264.814 200.683C265.197 200.49 265.597 200.332 266.008 200.21C266.788 199.937 267.916 199.555 269.326 199.149C272.153 198.319 276.109 197.333 280.529 196.487C284.274 195.771 288.052 195.245 291.849 194.911C293.317 194.787 294.503 194.737 295.332 194.72C295.758 194.691 296.186 194.705 296.609 194.762Z" fill="#263238"/>
<path d="M250.849 236.144C250.761 236.024 250.688 235.893 250.633 235.754L250.086 234.601C249.613 233.598 248.975 232.113 248.212 230.297C246.669 226.648 244.704 221.54 242.614 215.867C240.524 210.195 238.6 205.087 237.141 201.396C236.428 199.605 235.839 198.137 235.399 197.042L234.935 195.857C234.871 195.72 234.826 195.575 234.802 195.425C234.891 195.545 234.963 195.676 235.018 195.815L235.565 196.968C236.03 197.971 236.676 199.456 237.439 201.272C238.982 204.921 240.947 210.029 243.037 215.702C245.127 221.374 247.051 226.482 248.51 230.173C249.224 231.964 249.812 233.432 250.244 234.527C250.434 234.999 250.592 235.356 250.716 235.712C250.781 235.849 250.825 235.994 250.849 236.144Z" fill="#263238"/>
<path d="M293.209 222.485C293.077 222.561 292.934 222.62 292.787 222.659L291.559 223.074L287.023 224.542C283.192 225.785 277.901 227.56 272.096 229.517C266.291 231.474 260.975 233.216 257.119 234.377C255.195 234.966 253.627 235.414 252.541 235.712L251.289 236.036C251.143 236.082 250.993 236.112 250.841 236.127C250.974 236.051 251.116 235.992 251.264 235.953L252.491 235.538L257.027 234.07C260.859 232.826 266.15 231.051 271.955 229.094C277.76 227.137 283.067 225.396 286.923 224.235C288.856 223.646 290.415 223.198 291.509 222.9L292.762 222.576C292.907 222.53 293.057 222.499 293.209 222.485Z" fill="#263238"/>
<path d="M275.927 21.3234L271.656 22.8493L269.823 17.2681C266.456 6.97657 255.725 1.51152 245.865 4.98627C236.005 8.46101 230.755 19.7477 234.122 30.0392L235.955 35.6204L231.667 37.1546C230.032 37.7887 228.705 39.0285 227.96 40.6162C227.216 42.2039 227.112 44.0174 227.67 45.6797L239.554 81.9945C239.801 82.8174 240.21 83.5824 240.758 84.2439C241.307 84.9054 241.982 85.45 242.745 85.8453C243.508 86.2406 244.342 86.4786 245.199 86.545C246.055 86.6115 246.916 86.5051 247.731 86.2322L291.99 70.401C293.647 69.768 294.993 68.5172 295.746 66.9118C296.5 65.3064 296.601 63.4715 296.029 61.7929L284.137 25.4781C283.884 24.6575 283.468 23.8963 282.914 23.2399C282.36 22.5834 281.68 22.0453 280.914 21.6575C280.148 21.2698 279.311 21.0403 278.454 20.9829C277.598 20.9255 276.738 21.0413 275.927 21.3234ZM242.191 27.1284C241.283 24.4525 241.446 21.529 242.646 18.9705C243.845 16.4121 245.989 14.4171 248.626 13.4036C249.929 12.958 251.308 12.7793 252.681 12.8782C254.054 12.977 255.393 13.3515 256.618 13.9792C257.843 14.6069 258.93 15.4749 259.812 16.5316C260.694 17.5882 261.355 18.8117 261.754 20.1292L263.579 25.7103L244.016 32.7096L242.191 27.1284ZM267.07 59.3548L270.105 68.6263C270.161 68.8122 270.143 69.0124 270.055 69.1854C269.967 69.3584 269.816 69.4908 269.632 69.5551L265.378 71.0727C265.209 71.1197 265.028 71.0993 264.873 71.0158C264.719 70.9323 264.602 70.7922 264.549 70.6249L261.489 61.3949C259.801 61.3029 258.182 60.6977 256.849 59.6602C255.515 58.6228 254.53 57.2026 254.025 55.5898C253.304 53.4576 253.435 51.1291 254.392 49.0917C255.349 47.0544 257.057 45.4662 259.158 44.6597C260.196 44.3052 261.294 44.1632 262.388 44.2422C263.482 44.3212 264.548 44.6195 265.524 45.1194C266.5 45.6194 267.365 46.3106 268.068 47.152C268.771 47.9934 269.297 48.9678 269.616 50.0169C270.149 51.6552 270.194 53.4136 269.743 55.0766C269.292 56.7396 268.366 58.235 267.078 59.3797L267.07 59.3548Z" fill="#6897A4"/>
<path d="M271.465 22.7495C271.465 22.8656 263.545 25.8428 253.693 29.3839C243.841 32.925 235.806 35.7694 235.764 35.6865C235.723 35.6036 243.684 32.6015 253.544 29.0522C263.404 25.5028 271.424 22.6417 271.465 22.7495Z" fill="#263238"/>
<path d="M280.869 24.2754C280.906 24.3474 280.937 24.4223 280.961 24.4993C281.027 24.6652 281.102 24.8808 281.201 25.1461C281.417 25.7515 281.715 26.5891 282.089 27.634L285.273 36.9055C286.6 40.8364 288.184 45.497 289.942 50.6718C290.771 53.2675 291.75 55.971 292.662 58.8155C293.15 60.2813 293.361 61.8252 293.284 63.3683C293.214 64.1708 292.985 64.9515 292.612 65.6655C292.214 66.377 291.682 67.005 291.045 67.5148C289.764 68.45 288.342 69.1751 286.832 69.6627L282.561 71.1968L274.476 74.0911L260.784 78.9673L251.537 82.2182L249.049 83.0475L248.386 83.2631C248.315 83.2946 248.239 83.3142 248.162 83.3211C248.162 83.3211 248.228 83.3211 248.369 83.2216L249.016 82.9645L251.504 82.0274L260.701 78.6439L274.368 73.6681L282.437 70.749L286.708 69.2065C288.174 68.7388 289.555 68.0358 290.796 67.125C291.388 66.652 291.884 66.0691 292.256 65.4084C292.607 64.7481 292.819 64.0226 292.878 63.2771C292.954 61.7903 292.751 60.3024 292.281 58.8901C291.385 56.0705 290.44 53.3421 289.585 50.7465C287.86 45.5634 286.268 40.8861 285.008 36.9553C283.747 33.0244 282.686 29.8648 281.956 27.6423C281.608 26.556 281.342 25.7101 281.127 25.0964L280.928 24.433C280.903 24.3827 280.883 24.3299 280.869 24.2754Z" fill="#263238"/>
<path d="M257.517 12.8393C257.517 12.8393 257.077 12.6236 256.264 12.2919C255.106 11.8468 253.881 11.6001 252.64 11.5622C250.802 11.4991 248.972 11.8447 247.283 12.5739C245.229 13.4819 243.473 14.9507 242.216 16.8116C240.951 18.6672 240.272 20.86 240.267 23.1059C240.284 24.9467 240.564 26.7757 241.097 28.5378C241.528 30.0471 241.976 31.2496 242.274 32.0872C242.45 32.5126 242.594 32.9506 242.705 33.3975C242.47 32.9997 242.273 32.5804 242.117 32.1452C241.777 31.3159 241.287 30.1383 240.806 28.6207C240.216 26.8401 239.894 24.9814 239.853 23.1059C239.83 20.7751 240.525 18.4939 241.843 16.5711C243.144 14.6422 244.972 13.1281 247.109 12.209C248.851 11.4758 250.737 11.1523 252.624 11.2636C253.891 11.3282 255.136 11.6233 256.297 12.1344C256.608 12.2776 256.907 12.444 257.193 12.6319C257.311 12.6838 257.42 12.7537 257.517 12.8393Z" fill="#263238"/>
<path d="M257.898 45.2898C258.03 45.2096 258.169 45.1403 258.313 45.0825C258.728 44.8952 259.158 44.7426 259.598 44.6264C260.297 44.4201 261.018 44.2976 261.746 44.2615C262.736 44.2083 263.726 44.3578 264.657 44.701C266.78 45.4474 268.729 47.6118 269.69 50.5061C270.152 52.0592 270.152 53.713 269.69 55.2662C269.179 56.952 268.262 58.4867 267.02 59.7361L267.07 59.5122C268.173 62.5391 269.375 65.8231 270.619 69.2481L270.694 69.4554L270.487 69.5301L268.588 70.1603L264.441 71.5452L264.234 71.6116L264.167 71.4043C263.031 67.971 261.787 64.7699 260.85 61.6269L261.033 61.7679C259.411 61.6332 257.866 61.0247 256.588 60.0181C255.431 59.1275 254.483 57.9955 253.81 56.7009C253.202 55.5528 252.899 54.2678 252.93 52.9691C252.969 51.6417 253.3 50.3393 253.901 49.1551C254.502 47.9708 255.357 46.9341 256.405 46.1191C256.837 45.7688 257.321 45.4889 257.84 45.2898C257.371 45.5677 256.917 45.8694 256.48 46.1937C255.328 47.168 254.446 48.4215 253.917 49.8343C253.464 50.8997 253.251 52.0523 253.296 53.2093C253.34 54.3664 253.64 55.4993 254.174 56.5267C254.837 57.7722 255.762 58.8587 256.886 59.7112C258.105 60.668 259.579 61.2449 261.124 61.3698H261.265L261.306 61.4942C262.219 64.5792 263.471 67.8051 264.624 71.255L264.35 71.1223L268.496 69.7374L270.387 69.0988L270.254 69.3808C269.019 65.9558 267.825 62.6635 266.73 59.6366V59.5122L266.829 59.4127C268.035 58.2151 268.934 56.7443 269.45 55.1252C269.89 53.6395 269.89 52.0581 269.45 50.5724C268.546 47.786 266.68 45.6713 264.657 44.9249C263.761 44.5795 262.805 44.4187 261.845 44.4522C261.129 44.4686 260.417 44.566 259.722 44.7425C258.487 45.0493 257.906 45.3313 257.898 45.2898Z" fill="#263238"/>
<path d="M232.264 284.74L149.426 284.359C144.642 284.332 140.064 282.408 136.698 279.009C133.332 275.61 131.452 271.014 131.472 266.23L132.351 58.5667C132.361 56.1967 132.837 53.8517 133.754 51.666C134.671 49.4803 136.009 47.4967 137.692 45.8285C139.376 44.1603 141.372 42.8403 143.566 41.9438C145.76 41.0474 148.109 40.5922 150.479 40.6042L233.309 40.9857C238.093 41.0098 242.672 42.9317 246.04 46.3292C249.408 49.7266 251.289 54.3219 251.272 59.1058L250.393 266.761C250.383 269.132 249.906 271.478 248.99 273.664C248.074 275.851 246.735 277.836 245.052 279.505C243.369 281.175 241.373 282.496 239.179 283.394C236.985 284.293 234.635 284.75 232.264 284.74Z" fill="#455A64"/>
<path d="M233.185 48.1259H217.129C216.606 48.1356 216.089 48.2485 215.609 48.4579C215.128 48.6674 214.694 48.9695 214.331 49.3468C213.967 49.7242 213.681 50.1695 213.49 50.6572C213.299 51.1449 213.205 51.6656 213.215 52.1895V55.1003C213.225 55.6237 213.132 56.144 212.94 56.6313C212.749 57.1186 212.463 57.5633 212.099 57.94C211.736 58.3167 211.301 58.6179 210.821 58.8265C210.341 59.0351 209.824 59.1469 209.301 59.1555L178.003 59.0146C176.945 58.9863 175.94 58.539 175.211 57.7709C174.482 57.0028 174.087 55.9767 174.114 54.9179V52.007C174.141 50.9496 173.747 49.9247 173.02 49.1568C172.292 48.3889 171.29 47.9407 170.233 47.9103H164.585L150.529 47.844C147.185 47.8241 143.97 49.1298 141.588 51.4752C139.205 53.8207 137.849 57.0147 137.816 60.358L136.986 263.054C136.979 264.713 137.298 266.357 137.926 267.892C138.553 269.427 139.477 270.824 140.645 272.002C141.812 273.18 143.2 274.117 144.73 274.759C146.259 275.4 147.9 275.735 149.559 275.742L232.223 276.124C233.882 276.131 235.527 275.812 237.064 275.184C238.6 274.556 239.997 273.631 241.176 272.463C242.355 271.295 243.293 269.906 243.935 268.375C244.577 266.845 244.911 265.203 244.919 263.543L245.748 60.8473C245.768 57.4946 244.456 54.2712 242.1 51.8857C239.744 49.5002 236.537 48.1479 233.185 48.1259Z" fill="white"/>
<path d="M222.064 249.081L160.597 248.815C159.958 248.815 159.444 248.119 159.452 247.273L159.519 231.193C159.519 230.364 160.041 229.65 160.68 229.65L222.147 229.932C222.501 229.994 222.817 230.189 223.031 230.478C223.244 230.767 223.337 231.127 223.291 231.483L223.233 247.547C223.233 248.401 222.703 249.089 222.064 249.081Z" fill="#6897A4"/>
<path d="M177.906 236.44C177.8 236.44 177.699 236.423 177.601 236.389C177.505 236.354 177.43 236.309 177.378 236.255L177.436 236.139C177.487 236.188 177.554 236.229 177.638 236.263C177.723 236.296 177.813 236.312 177.906 236.312C177.996 236.312 178.068 236.301 178.124 236.279C178.18 236.256 178.222 236.226 178.248 236.188C178.275 236.15 178.288 236.108 178.288 236.062C178.288 236.006 178.272 235.962 178.239 235.928C178.208 235.894 178.167 235.867 178.115 235.848C178.064 235.828 178.007 235.81 177.945 235.796C177.882 235.781 177.82 235.765 177.758 235.749C177.695 235.731 177.638 235.708 177.585 235.68C177.533 235.651 177.491 235.614 177.459 235.568C177.428 235.52 177.412 235.459 177.412 235.383C177.412 235.312 177.43 235.248 177.467 235.19C177.505 235.13 177.563 235.083 177.64 235.047C177.717 235.011 177.816 234.993 177.937 234.993C178.017 234.993 178.096 235.004 178.174 235.027C178.253 235.049 178.321 235.079 178.378 235.119L178.327 235.239C178.266 235.198 178.201 235.168 178.132 235.149C178.064 235.13 177.998 235.121 177.935 235.121C177.849 235.121 177.779 235.132 177.723 235.155C177.668 235.178 177.626 235.209 177.599 235.249C177.573 235.287 177.56 235.33 177.56 235.379C177.56 235.434 177.576 235.479 177.607 235.513C177.64 235.547 177.682 235.573 177.733 235.592C177.786 235.611 177.844 235.628 177.906 235.643C177.968 235.658 178.03 235.674 178.091 235.692C178.153 235.709 178.21 235.733 178.262 235.761C178.315 235.788 178.357 235.825 178.388 235.871C178.42 235.917 178.437 235.977 178.437 236.052C178.437 236.121 178.418 236.185 178.38 236.245C178.342 236.303 178.283 236.35 178.205 236.387C178.128 236.422 178.028 236.44 177.906 236.44ZM178.764 236.428V235.005H178.915V236.428H178.764ZM179.378 236.428V235.005H179.502L180.484 236.241H180.419V235.005H180.567V236.428H180.443L179.463 235.192H179.528V236.428H179.378ZM181.656 236.44C181.547 236.44 181.447 236.422 181.355 236.387C181.264 236.35 181.185 236.3 181.117 236.235C181.05 236.17 180.998 236.093 180.96 236.005C180.924 235.917 180.905 235.821 180.905 235.716C180.905 235.612 180.924 235.516 180.96 235.428C180.998 235.339 181.051 235.263 181.119 235.198C181.187 235.133 181.266 235.083 181.357 235.047C181.449 235.011 181.549 234.993 181.658 234.993C181.766 234.993 181.865 235.01 181.954 235.043C182.045 235.077 182.122 235.129 182.186 235.198L182.093 235.293C182.033 235.234 181.967 235.191 181.895 235.165C181.824 235.14 181.746 235.127 181.664 235.127C181.576 235.127 181.494 235.142 181.42 235.171C181.347 235.2 181.282 235.241 181.227 235.295C181.172 235.348 181.13 235.411 181.099 235.482C181.069 235.553 181.054 235.631 181.054 235.716C181.054 235.8 181.069 235.878 181.099 235.95C181.13 236.022 181.172 236.085 181.227 236.139C181.282 236.192 181.347 236.233 181.42 236.263C181.494 236.292 181.575 236.306 181.662 236.306C181.743 236.306 181.82 236.294 181.891 236.269C181.965 236.245 182.032 236.203 182.093 236.145L182.178 236.259C182.11 236.319 182.031 236.364 181.94 236.395C181.849 236.425 181.754 236.44 181.656 236.44ZM182.034 236.241V235.716H182.178V236.259L182.034 236.241ZM183.709 236.44C183.527 236.44 183.384 236.388 183.28 236.283C183.176 236.179 183.124 236.025 183.124 235.82V235.005H183.274V235.814C183.274 235.982 183.312 236.106 183.388 236.186C183.464 236.266 183.571 236.306 183.709 236.306C183.849 236.306 183.956 236.266 184.032 236.186C184.108 236.106 184.146 235.982 184.146 235.814V235.005H184.292V235.82C184.292 236.025 184.24 236.179 184.136 236.283C184.033 236.388 183.891 236.44 183.709 236.44ZM184.746 236.428V235.005H185.278C185.399 235.005 185.503 235.024 185.589 235.064C185.676 235.102 185.742 235.157 185.789 235.23C185.836 235.302 185.86 235.39 185.86 235.493C185.86 235.593 185.836 235.68 185.789 235.753C185.742 235.825 185.676 235.88 185.589 235.92C185.503 235.959 185.399 235.978 185.278 235.978H184.829L184.896 235.907V236.428H184.746ZM184.896 235.92L184.829 235.846H185.274C185.417 235.846 185.524 235.816 185.597 235.755C185.672 235.693 185.709 235.605 185.709 235.493C185.709 235.379 185.672 235.291 185.597 235.228C185.524 235.166 185.417 235.135 185.274 235.135H184.829L184.896 235.064V235.92Z" fill="#E8E8E3"/>
<path d="M172.857 107.711L151.528 107.614L151.51 111.528L172.839 111.625L172.857 107.711Z" fill="#6897A4"/>
<path opacity="0.1" d="M172.857 107.711L151.528 107.614L151.51 111.528L172.839 111.625L172.857 107.711Z" fill="black"/>
<path d="M235.382 131.744C235.55 131.727 235.714 131.688 235.871 131.628C236.101 131.538 236.3 131.385 236.447 131.187C236.594 130.989 236.682 130.754 236.701 130.508C236.701 129.189 236.701 127.265 236.701 124.794C236.701 123.558 236.701 122.174 236.701 120.648C236.701 120.274 236.701 119.885 236.701 119.495C236.755 119.117 236.672 118.732 236.468 118.409C236.354 118.254 236.206 118.127 236.034 118.04C235.863 117.952 235.674 117.905 235.482 117.903H234.188H222.205L152.842 117.646C152.665 117.643 152.489 117.682 152.33 117.762C152.172 117.841 152.034 117.958 151.93 118.102C151.73 118.426 151.653 118.812 151.715 119.188C151.715 120.017 151.715 120.847 151.715 121.676C151.715 123.335 151.715 124.993 151.715 126.652C151.715 127.481 151.715 128.31 151.715 129.14C151.68 129.526 151.68 129.914 151.715 130.301C151.758 130.466 151.839 130.62 151.951 130.749C152.063 130.878 152.204 130.98 152.361 131.047C152.525 131.112 152.7 131.143 152.876 131.138H157.097L175.515 131.238L206.697 131.428L227.719 131.594L233.433 131.661H234.918C235.258 131.661 235.424 131.661 235.424 131.661H234.918H233.433H227.719H206.697L175.515 131.561L157.097 131.487H152.876C152.643 131.496 152.412 131.456 152.196 131.37C151.977 131.277 151.783 131.135 151.628 130.956C151.473 130.776 151.36 130.563 151.3 130.334C151.252 130.116 151.235 129.893 151.25 129.67V129.057C151.25 128.227 151.25 127.398 151.25 126.569C151.25 124.91 151.25 123.252 151.25 121.593C151.25 120.764 151.25 119.934 151.25 119.105C151.234 118.884 151.234 118.663 151.25 118.442C151.281 118.198 151.376 117.966 151.524 117.77C151.667 117.57 151.856 117.407 152.076 117.296C152.295 117.185 152.538 117.128 152.784 117.131L222.147 117.513L234.13 117.596H235.424C235.651 117.596 235.876 117.651 236.078 117.757C236.28 117.862 236.454 118.014 236.585 118.201C236.818 118.562 236.913 118.995 236.85 119.42C236.85 119.81 236.85 120.2 236.85 120.573C236.85 122.082 236.85 123.467 236.85 124.72C236.85 127.207 236.792 129.115 236.775 130.442C236.755 130.697 236.662 130.941 236.508 131.145C236.354 131.349 236.144 131.505 235.904 131.594C235.748 131.692 235.567 131.743 235.382 131.744Z" fill="#E0E0E0"/>
<path d="M196.945 121.809H157.935V125.466H196.945V121.809Z" fill="#6897A4"/>
<path opacity="0.2" d="M196.945 121.809H157.935V125.466H196.945V121.809Z" fill="white"/>
<path d="M172.712 143.419L151.382 143.322L151.365 147.236L172.694 147.333L172.712 143.419Z" fill="#6897A4"/>
<path opacity="0.1" d="M172.712 143.419L151.382 143.322L151.365 147.236L172.694 147.333L172.712 143.419Z" fill="black"/>
<path d="M234.843 167.453C235.011 167.432 235.177 167.402 235.341 167.362C235.572 167.288 235.785 167.166 235.966 167.003C236.146 166.839 236.289 166.64 236.386 166.416C236.516 166.082 236.567 165.721 236.535 165.363C236.535 164.965 236.535 164.534 236.535 164.053C236.535 163.091 236.535 161.996 236.535 160.736V155.47C236.574 155.089 236.49 154.705 236.294 154.375C236.09 154.037 235.768 153.786 235.39 153.67C234.977 153.596 234.557 153.574 234.138 153.604H222.205L153.083 153.347C152.711 153.348 152.352 153.484 152.073 153.729C151.794 153.975 151.614 154.313 151.565 154.682C151.565 155.47 151.565 156.341 151.565 157.17C151.565 158.828 151.565 160.487 151.565 162.146C151.565 162.975 151.565 163.804 151.565 164.633C151.534 165.021 151.551 165.411 151.615 165.794C151.719 166.131 151.932 166.423 152.22 166.624C152.527 166.818 152.887 166.911 153.249 166.889H154.402H156.798L175.15 166.98L206.224 167.171L227.172 167.337L232.869 167.403H227.172H206.224L175.134 167.37L156.782 167.304H153.174C152.726 167.33 152.281 167.211 151.905 166.964C151.528 166.702 151.253 166.319 151.126 165.877C151.051 165.456 151.029 165.027 151.059 164.6C151.059 163.771 151.059 162.942 151.059 162.112C151.059 160.454 151.059 158.795 151.059 157.137C151.059 156.307 151.059 155.478 151.059 154.649C151.12 154.175 151.351 153.739 151.71 153.423C152.069 153.107 152.53 152.932 153.008 152.932L222.13 153.314L234.064 153.405C234.508 153.378 234.954 153.408 235.39 153.496C235.821 153.637 236.185 153.932 236.41 154.325C236.625 154.691 236.718 155.115 236.676 155.536C236.676 155.926 236.676 156.307 236.676 156.689C236.676 158.19 236.676 159.566 236.676 160.835C236.676 162.104 236.676 163.174 236.676 164.152C236.676 164.625 236.676 165.065 236.676 165.471C236.706 165.842 236.646 166.215 236.502 166.557C236.394 166.786 236.238 166.989 236.045 167.152C235.852 167.315 235.626 167.435 235.382 167.503C235.201 167.518 235.018 167.501 234.843 167.453Z" fill="#E0E0E0"/>
<path d="M172.551 180.678L151.222 180.582L151.204 184.496L172.533 184.593L172.551 180.678Z" fill="#6897A4"/>
<path opacity="0.1" d="M172.551 180.678L151.222 180.582L151.204 184.496L172.533 184.593L172.551 180.678Z" fill="black"/>
<path d="M234.678 204.697C234.845 204.677 235.011 204.646 235.175 204.605C235.406 204.532 235.618 204.411 235.798 204.249C235.978 204.088 236.122 203.89 236.22 203.668C236.35 203.333 236.401 202.973 236.369 202.615C236.369 202.209 236.369 201.786 236.369 201.297C236.369 200.343 236.369 199.24 236.369 197.979V192.713C236.409 192.332 236.325 191.948 236.129 191.619C235.919 191.287 235.599 191.04 235.225 190.922C234.812 190.845 234.392 190.82 233.973 190.847H222.039L152.917 190.59C152.546 190.591 152.187 190.727 151.908 190.973C151.629 191.218 151.448 191.557 151.4 191.925C151.4 192.755 151.4 193.584 151.4 194.413C151.4 196.072 151.4 197.731 151.4 199.389C151.4 200.218 151.4 201.048 151.4 201.877C151.369 202.262 151.386 202.649 151.45 203.03C151.549 203.368 151.763 203.661 152.055 203.859C152.359 204.058 152.721 204.151 153.083 204.124H156.691L175.043 204.224L206.117 204.415L227.065 204.581L232.762 204.647H227.065H206.117L175.043 204.556L156.691 204.481H153.083C152.634 204.511 152.188 204.392 151.815 204.141C151.437 203.88 151.162 203.496 151.035 203.055C150.961 202.633 150.938 202.204 150.969 201.778C150.969 200.948 150.969 200.119 150.969 199.29C150.969 197.631 150.969 195.972 150.969 194.314C150.969 193.485 150.969 192.655 150.969 191.785C151.027 191.311 151.257 190.875 151.614 190.559C151.972 190.243 152.432 190.068 152.909 190.068L222.031 190.449L233.964 190.541C234.409 190.513 234.855 190.544 235.291 190.632C235.722 190.773 236.086 191.068 236.311 191.461C236.526 191.826 236.619 192.25 236.577 192.672C236.577 193.062 236.577 193.451 236.577 193.825C236.577 195.326 236.577 196.702 236.577 197.971C236.577 199.24 236.577 200.31 236.577 201.288C236.577 201.761 236.577 202.2 236.577 202.607C236.609 202.978 236.549 203.351 236.403 203.693C236.295 203.922 236.139 204.125 235.946 204.288C235.753 204.451 235.527 204.571 235.283 204.639C235.089 204.705 234.881 204.725 234.678 204.697Z" fill="#E0E0E0"/>
<path d="M196.112 158.552L157.102 158.375L157.085 162.032L196.095 162.209L196.112 158.552Z" fill="#6897A4"/>
<path opacity="0.2" d="M196.112 158.552L157.102 158.375L157.085 162.032L196.095 162.209L196.112 158.552Z" fill="white"/>
<path d="M160.629 197.93C160.605 198.263 160.483 198.582 160.279 198.847C160.075 199.112 159.797 199.311 159.481 199.42C159.165 199.529 158.824 199.542 158.5 199.459C158.176 199.376 157.883 199.199 157.659 198.951C157.435 198.703 157.288 198.394 157.237 198.064C157.186 197.733 157.234 197.395 157.373 197.091C157.513 196.787 157.739 196.531 158.023 196.354C158.307 196.177 158.636 196.088 158.971 196.097C159.433 196.123 159.866 196.329 160.177 196.672C160.487 197.016 160.65 197.467 160.629 197.93Z" fill="#6897A4"/>
<path d="M165.912 197.954C165.928 198.188 165.896 198.423 165.818 198.644C165.74 198.865 165.617 199.067 165.457 199.238C165.297 199.41 165.104 199.546 164.889 199.64C164.674 199.733 164.442 199.782 164.208 199.782C163.973 199.782 163.742 199.733 163.527 199.64C163.312 199.546 163.118 199.41 162.959 199.238C162.799 199.067 162.676 198.865 162.598 198.644C162.519 198.423 162.487 198.188 162.504 197.954C162.487 197.72 162.519 197.486 162.598 197.265C162.676 197.044 162.799 196.842 162.959 196.67C163.118 196.499 163.312 196.362 163.527 196.269C163.742 196.175 163.973 196.127 164.208 196.127C164.442 196.127 164.674 196.175 164.889 196.269C165.104 196.362 165.297 196.499 165.457 196.67C165.617 196.842 165.74 197.044 165.818 197.265C165.896 197.486 165.928 197.72 165.912 197.954Z" fill="#6897A4"/>
<path d="M171.203 197.979C171.179 198.313 171.057 198.632 170.853 198.897C170.649 199.162 170.371 199.361 170.055 199.47C169.739 199.579 169.397 199.592 169.073 199.509C168.749 199.425 168.457 199.249 168.233 199.001C168.008 198.753 167.862 198.444 167.811 198.114C167.76 197.783 167.807 197.445 167.947 197.141C168.087 196.837 168.313 196.581 168.597 196.404C168.881 196.227 169.21 196.138 169.545 196.147C170.006 196.174 170.438 196.382 170.748 196.725C171.058 197.067 171.221 197.518 171.203 197.979Z" fill="#6897A4"/>
<path d="M176.486 198.004C176.461 198.338 176.34 198.657 176.135 198.922C175.931 199.187 175.654 199.386 175.338 199.495C175.021 199.604 174.68 199.617 174.356 199.534C174.032 199.45 173.74 199.274 173.515 199.026C173.291 198.778 173.144 198.469 173.094 198.139C173.043 197.808 173.09 197.47 173.23 197.166C173.37 196.862 173.595 196.606 173.879 196.429C174.163 196.252 174.493 196.163 174.827 196.171C175.289 196.199 175.72 196.407 176.031 196.749C176.341 197.092 176.504 197.543 176.486 198.004Z" fill="#6897A4"/>
<path d="M181.768 198.021C181.746 198.355 181.625 198.675 181.422 198.941C181.219 199.207 180.942 199.408 180.625 199.518C180.309 199.628 179.967 199.642 179.643 199.56C179.318 199.477 179.025 199.301 178.8 199.053C178.575 198.806 178.427 198.497 178.376 198.166C178.325 197.835 178.372 197.497 178.511 197.192C178.651 196.888 178.877 196.631 179.161 196.454C179.445 196.277 179.775 196.187 180.11 196.196C180.57 196.224 181 196.431 181.31 196.771C181.62 197.112 181.784 197.561 181.768 198.021Z" fill="#6897A4"/>
<path d="M187.059 198.046C187.037 198.378 186.918 198.696 186.716 198.962C186.515 199.227 186.24 199.428 185.926 199.54C185.613 199.651 185.273 199.668 184.949 199.589C184.626 199.51 184.332 199.338 184.105 199.094C183.878 198.85 183.727 198.546 183.671 198.217C183.615 197.889 183.656 197.551 183.789 197.246C183.923 196.941 184.142 196.681 184.421 196.499C184.7 196.317 185.026 196.22 185.359 196.221C185.827 196.238 186.268 196.44 186.586 196.782C186.905 197.124 187.075 197.578 187.059 198.046Z" fill="#6897A4"/>
<path d="M192.342 198.07C192.358 198.304 192.326 198.539 192.248 198.76C192.17 198.981 192.047 199.183 191.887 199.355C191.727 199.526 191.534 199.663 191.319 199.756C191.104 199.85 190.872 199.898 190.638 199.898C190.403 199.898 190.172 199.85 189.957 199.756C189.742 199.663 189.548 199.526 189.388 199.355C189.229 199.183 189.106 198.981 189.027 198.76C188.949 198.539 188.917 198.304 188.934 198.07C188.917 197.837 188.949 197.602 189.027 197.381C189.106 197.16 189.229 196.958 189.388 196.786C189.548 196.615 189.742 196.478 189.957 196.385C190.172 196.291 190.403 196.243 190.638 196.243C190.872 196.243 191.104 196.291 191.319 196.385C191.534 196.478 191.727 196.615 191.887 196.786C192.047 196.958 192.17 197.16 192.248 197.381C192.326 197.602 192.358 197.837 192.342 198.07Z" fill="#6897A4"/>
<path d="M197.625 198.095C197.602 198.428 197.483 198.746 197.281 199.012C197.08 199.277 196.806 199.478 196.492 199.589C196.178 199.701 195.838 199.718 195.514 199.639C195.191 199.56 194.898 199.388 194.67 199.144C194.443 198.9 194.292 198.595 194.236 198.267C194.18 197.939 194.221 197.601 194.355 197.296C194.488 196.991 194.707 196.731 194.986 196.549C195.265 196.367 195.591 196.27 195.925 196.271C196.392 196.288 196.833 196.49 197.152 196.832C197.47 197.174 197.64 197.628 197.625 198.095Z" fill="#6897A4"/>
<path d="M202.907 198.12C202.884 198.455 202.764 198.775 202.561 199.041C202.357 199.307 202.08 199.507 201.764 199.617C201.448 199.727 201.106 199.742 200.782 199.659C200.457 199.577 200.164 199.401 199.939 199.153C199.714 198.905 199.566 198.597 199.515 198.266C199.463 197.935 199.511 197.596 199.65 197.292C199.79 196.987 200.016 196.731 200.3 196.554C200.584 196.377 200.914 196.287 201.249 196.296C201.708 196.324 202.139 196.53 202.449 196.871C202.759 197.212 202.923 197.66 202.907 198.12Z" fill="#6897A4"/>
<g opacity="0.2">
<path d="M160.63 197.93C160.605 198.263 160.484 198.582 160.279 198.847C160.075 199.112 159.798 199.311 159.482 199.42C159.165 199.529 158.824 199.542 158.5 199.459C158.176 199.376 157.884 199.199 157.659 198.951C157.435 198.703 157.288 198.394 157.238 198.064C157.187 197.733 157.234 197.395 157.374 197.091C157.514 196.787 157.739 196.531 158.023 196.354C158.307 196.177 158.637 196.088 158.971 196.097C159.433 196.123 159.867 196.329 160.177 196.672C160.488 197.016 160.65 197.467 160.63 197.93Z" fill="white"/>
<path d="M165.913 197.954C165.929 198.188 165.897 198.423 165.819 198.644C165.74 198.865 165.618 199.067 165.458 199.238C165.298 199.41 165.104 199.546 164.889 199.64C164.675 199.733 164.443 199.782 164.208 199.782C163.974 199.782 163.742 199.733 163.527 199.64C163.312 199.546 163.119 199.41 162.959 199.238C162.799 199.067 162.676 198.865 162.598 198.644C162.52 198.423 162.488 198.188 162.504 197.954C162.488 197.72 162.52 197.486 162.598 197.265C162.676 197.044 162.799 196.842 162.959 196.67C163.119 196.499 163.312 196.362 163.527 196.269C163.742 196.175 163.974 196.127 164.208 196.127C164.443 196.127 164.675 196.175 164.889 196.269C165.104 196.362 165.298 196.499 165.458 196.67C165.618 196.842 165.74 197.044 165.819 197.265C165.897 197.486 165.929 197.72 165.913 197.954Z" fill="white"/>
<path d="M171.203 197.979C171.179 198.313 171.057 198.632 170.853 198.897C170.649 199.162 170.371 199.361 170.055 199.47C169.739 199.579 169.397 199.592 169.074 199.509C168.75 199.425 168.457 199.249 168.233 199.001C168.009 198.753 167.862 198.444 167.811 198.114C167.76 197.783 167.808 197.445 167.947 197.141C168.087 196.837 168.313 196.581 168.597 196.404C168.881 196.227 169.21 196.138 169.545 196.147C170.006 196.174 170.438 196.382 170.748 196.725C171.058 197.067 171.222 197.518 171.203 197.979Z" fill="white"/>
<path d="M176.486 198.004C176.462 198.338 176.34 198.657 176.136 198.922C175.931 199.187 175.654 199.386 175.338 199.495C175.021 199.604 174.68 199.617 174.356 199.534C174.032 199.45 173.74 199.274 173.516 199.026C173.291 198.778 173.145 198.469 173.094 198.139C173.043 197.808 173.09 197.47 173.23 197.166C173.37 196.862 173.596 196.606 173.88 196.429C174.164 196.252 174.493 196.163 174.828 196.171C175.289 196.199 175.721 196.407 176.031 196.749C176.341 197.092 176.504 197.543 176.486 198.004Z" fill="white"/>
<path d="M181.769 198.021C181.746 198.355 181.625 198.675 181.422 198.941C181.219 199.207 180.942 199.408 180.625 199.518C180.309 199.628 179.968 199.642 179.643 199.56C179.319 199.477 179.025 199.301 178.8 199.053C178.575 198.806 178.428 198.497 178.376 198.166C178.325 197.835 178.372 197.497 178.511 197.192C178.651 196.888 178.877 196.631 179.161 196.454C179.445 196.277 179.775 196.187 180.11 196.196C180.57 196.224 181.001 196.431 181.31 196.771C181.62 197.112 181.785 197.561 181.769 198.021Z" fill="white"/>
<path d="M187.059 198.046C187.037 198.378 186.918 198.696 186.716 198.962C186.515 199.227 186.24 199.428 185.926 199.54C185.613 199.651 185.273 199.668 184.949 199.589C184.626 199.51 184.332 199.338 184.105 199.094C183.878 198.85 183.727 198.546 183.671 198.217C183.615 197.889 183.656 197.551 183.789 197.246C183.923 196.941 184.142 196.681 184.421 196.499C184.7 196.317 185.026 196.22 185.359 196.221C185.827 196.238 186.268 196.44 186.586 196.782C186.905 197.124 187.075 197.578 187.059 198.046Z" fill="white"/>
<path d="M192.342 198.07C192.358 198.304 192.326 198.539 192.248 198.76C192.17 198.981 192.047 199.183 191.887 199.355C191.727 199.526 191.534 199.663 191.319 199.756C191.104 199.85 190.872 199.898 190.638 199.898C190.403 199.898 190.172 199.85 189.957 199.756C189.742 199.663 189.548 199.526 189.388 199.355C189.229 199.183 189.106 198.981 189.027 198.76C188.949 198.539 188.917 198.304 188.934 198.07C188.917 197.837 188.949 197.602 189.027 197.381C189.106 197.16 189.229 196.958 189.388 196.786C189.548 196.615 189.742 196.478 189.957 196.385C190.172 196.291 190.403 196.243 190.638 196.243C190.872 196.243 191.104 196.291 191.319 196.385C191.534 196.478 191.727 196.615 191.887 196.786C192.047 196.958 192.17 197.16 192.248 197.381C192.326 197.602 192.358 197.837 192.342 198.07Z" fill="white"/>
<path d="M197.625 198.095C197.602 198.428 197.483 198.746 197.281 199.012C197.08 199.277 196.806 199.478 196.492 199.589C196.178 199.701 195.838 199.718 195.514 199.639C195.191 199.56 194.898 199.388 194.67 199.144C194.443 198.9 194.292 198.595 194.236 198.267C194.18 197.939 194.221 197.601 194.355 197.296C194.488 196.991 194.707 196.731 194.986 196.549C195.265 196.367 195.591 196.27 195.925 196.271C196.392 196.288 196.833 196.49 197.152 196.832C197.47 197.174 197.64 197.628 197.625 198.095Z" fill="white"/>
<path d="M202.907 198.12C202.884 198.455 202.764 198.775 202.561 199.041C202.357 199.307 202.08 199.507 201.764 199.617C201.448 199.727 201.106 199.742 200.782 199.659C200.457 199.577 200.164 199.401 199.939 199.153C199.714 198.905 199.566 198.597 199.515 198.266C199.463 197.935 199.511 197.596 199.65 197.292C199.79 196.987 200.016 196.731 200.3 196.554C200.584 196.377 200.914 196.287 201.249 196.296C201.708 196.324 202.139 196.53 202.449 196.871C202.759 197.212 202.923 197.66 202.907 198.12Z" fill="white"/>
</g>
<path d="M195.402 78.4035C195.978 78.1498 196.467 77.7323 196.808 77.2029C197.148 76.6736 197.326 76.0557 197.318 75.4263C197.339 75.0171 197.277 74.6079 197.135 74.2235C196.994 73.8391 196.775 73.4875 196.493 73.1903C196.211 72.8931 195.871 72.6564 195.495 72.4947C195.118 72.3329 194.713 72.2495 194.303 72.2495C193.894 72.2495 193.488 72.3329 193.112 72.4947C192.735 72.6564 192.396 72.8931 192.114 73.1903C191.832 73.4875 191.613 73.8391 191.471 74.2235C191.329 74.6079 191.267 75.0171 191.289 75.4263C191.276 76.062 191.452 76.6873 191.795 77.223C192.137 77.7588 192.631 78.1811 193.213 78.4366C188.569 79.1333 188.776 84.1754 188.776 84.1754L199.756 84.2251C199.756 84.2251 200.013 79.0918 195.402 78.4035Z" fill="#6897A4"/>
<path opacity="0.1" d="M195.402 78.4035C195.978 78.1498 196.467 77.7323 196.808 77.2029C197.148 76.6736 197.326 76.0557 197.318 75.4263C197.339 75.0171 197.277 74.6079 197.135 74.2235C196.994 73.8391 196.775 73.4875 196.493 73.1903C196.211 72.8931 195.871 72.6564 195.495 72.4947C195.118 72.3329 194.713 72.2495 194.303 72.2495C193.894 72.2495 193.488 72.3329 193.112 72.4947C192.735 72.6564 192.396 72.8931 192.114 73.1903C191.832 73.4875 191.613 73.8391 191.471 74.2235C191.329 74.6079 191.267 75.0171 191.289 75.4263C191.276 76.062 191.452 76.6873 191.795 77.223C192.137 77.7588 192.631 78.1811 193.213 78.4366C188.569 79.1333 188.776 84.1754 188.776 84.1754L199.756 84.2251C199.756 84.2251 200.013 79.0918 195.402 78.4035Z" fill="black"/>
<path d="M213.244 87.4769L174.11 87.2993L174.089 91.9765L213.223 92.1541L213.244 87.4769Z" fill="#6897A4"/>
<path opacity="0.2" d="M213.244 87.4769L174.11 87.2993L174.089 91.9765L213.223 92.1541L213.244 87.4769Z" fill="white"/>
<path d="M69.3747 111.716H68.9849L67.8571 111.799C67.2467 111.836 66.6398 111.916 66.0409 112.04C65.6531 112.094 65.2683 112.169 64.8882 112.264L63.6028 112.62C61.415 113.292 59.3508 114.314 57.4909 115.647C55.0336 117.431 52.9817 119.714 51.4702 122.348C50.5818 123.866 49.8749 125.483 49.3638 127.166C48.8269 128.995 48.5177 130.884 48.4433 132.789C48.3939 133.789 48.4105 134.792 48.4931 135.791C48.4931 136.297 48.6341 136.803 48.7004 137.317C48.7562 137.835 48.8533 138.348 48.9906 138.851C49.7364 142.179 51.2495 145.286 53.4092 147.925C55.569 150.565 58.3156 152.662 61.4301 154.052C63.6842 155.024 66.1002 155.567 68.5537 155.652C71.0878 155.792 73.6244 155.428 76.0173 154.583L76.7471 154.309H76.8466L76.9296 154.359L87.387 159.666L87.0801 159.932C85.9606 156.465 84.8825 153.106 83.8376 149.88V149.756L83.9288 149.665C86.4656 147.11 88.3488 143.981 89.4187 140.543C90.3878 137.4 90.6706 134.085 90.248 130.823C89.8722 127.925 88.9401 125.126 87.5031 122.58C86.2643 120.394 84.6664 118.431 82.7761 116.775C81.2166 115.464 79.4905 114.366 77.6428 113.508C76.2447 112.905 74.7886 112.446 73.2973 112.139L71.6387 111.866L70.4362 111.774L69.7064 111.725H69.4576C69.5403 111.715 69.6237 111.715 69.7064 111.725H70.4445L71.647 111.774L73.3056 112.015C74.8155 112.299 76.2914 112.741 77.7091 113.333C79.5886 114.181 81.3458 115.277 82.9337 116.593C84.8587 118.241 86.4906 120.204 87.7602 122.398C89.238 124.97 90.1986 127.807 90.588 130.749C91.0457 134.061 90.7826 137.433 89.8168 140.634C88.7399 144.143 86.8276 147.339 84.2439 149.947L84.2937 149.731C85.3386 152.957 86.425 156.316 87.5528 159.774L87.7104 160.28L87.2377 160.039L76.7803 154.74H76.9627L76.2164 155.014C73.7774 155.872 71.1938 156.244 68.6118 156.108C66.1054 156.013 63.6388 155.451 61.3388 154.45C56.9516 152.571 53.3015 149.305 50.9478 145.154C49.8647 143.236 49.0736 141.168 48.6009 139.017C48.4714 138.501 48.3745 137.977 48.3106 137.449C48.2443 136.927 48.1365 136.413 48.1116 135.899C47.8872 132.948 48.199 129.981 49.0321 127.141C49.5559 125.435 50.2826 123.798 51.1966 122.265C52.7441 119.608 54.8388 117.309 57.3416 115.523C59.2321 114.186 61.331 113.172 63.5531 112.521L64.855 112.189C65.2383 112.1 65.6258 112.031 66.0161 111.982C66.6211 111.87 67.2338 111.803 67.8488 111.783L68.9849 111.741C69.1141 111.724 69.2444 111.716 69.3747 111.716Z" fill="#6897A4"/>
<path d="M74.1016 131.055H72.5674L69.2503 126.395V123.335C69.2503 123.335 66.8785 123.185 67.1604 127.191C67.4424 131.196 67.1604 130.176 67.1604 130.176C67.1604 130.176 62.1266 130.176 61.712 130.632C61.2973 131.089 61.2725 135.948 61.2144 138.66C61.1826 139.314 61.3702 139.959 61.7473 140.494C62.1245 141.029 62.6695 141.423 63.2959 141.612C63.4715 141.661 63.6528 141.686 63.835 141.687C65.0955 141.687 71.5059 140.667 71.5059 140.667H74.1514L74.1016 131.055Z" fill="#6897A4"/>
<path d="M78.4888 130.234L77.5434 140.717H74.9229V130.45L78.4888 130.234Z" fill="#6897A4"/>
<path d="M109.744 343.636V336.546L97.0312 336.455L96.9233 347.177L97.7112 347.235C101.219 347.459 115.558 347.791 117.913 347.061C120.533 346.249 109.744 343.636 109.744 343.636Z" fill="#6897A4"/>
<path d="M118.211 346.398C118.211 346.514 113.451 346.613 107.588 346.613C101.725 346.613 96.9648 346.514 96.9648 346.398C96.9648 346.282 101.725 346.182 107.588 346.182C113.451 346.182 118.211 346.282 118.211 346.398Z" fill="#263238"/>
<path d="M109.968 345.087C109.86 345.029 109.968 344.656 110.225 344.258C110.482 343.86 110.831 343.694 110.914 343.777C110.997 343.86 110.822 344.175 110.574 344.515C110.325 344.855 110.076 345.145 109.968 345.087Z" fill="#263238"/>
<path d="M110.781 345.552C110.665 345.552 110.723 345.088 110.972 344.648C111.221 344.209 111.552 343.943 111.644 344.01C111.735 344.076 111.585 344.449 111.353 344.839C111.121 345.229 110.889 345.594 110.781 345.552Z" fill="#263238"/>
<path d="M100.796 346.365C100.746 346.365 100.556 346.216 100.282 345.901C99.9479 345.495 99.5758 345.123 99.1707 344.789C98.7724 344.471 98.2979 344.262 97.7941 344.184C97.4043 344.134 97.1555 344.184 97.1307 344.134C97.1058 344.084 97.3463 343.91 97.8024 343.877C98.4043 343.864 98.9915 344.064 99.461 344.441C99.9008 344.799 100.272 345.235 100.556 345.726C100.746 346.091 100.846 346.332 100.796 346.365Z" fill="#263238"/>
<path d="M110.01 343.753C110.068 343.852 109.852 344.101 109.487 344.233C109.123 344.366 108.799 344.316 108.782 344.233C108.766 344.151 109.023 343.976 109.338 343.86C109.653 343.744 109.944 343.653 110.01 343.753Z" fill="#263238"/>
<path d="M109.811 343.064C109.811 343.189 109.479 343.288 109.048 343.296C108.617 343.305 108.277 343.205 108.285 343.089C108.293 342.973 108.633 342.865 109.048 342.857C109.462 342.849 109.794 342.948 109.811 343.064Z" fill="#263238"/>
<path d="M141.05 343.636V336.546L128.337 336.455L128.229 347.07L129.017 347.128C132.525 347.352 146.872 347.791 149.219 347.061C151.839 346.249 141.05 343.636 141.05 343.636Z" fill="#6897A4"/>
<path d="M149.518 346.414C149.518 346.53 144.766 346.63 138.894 346.63C133.023 346.63 128.279 346.53 128.279 346.414C128.279 346.298 133.031 346.199 138.894 346.199C144.757 346.199 149.518 346.298 149.518 346.414Z" fill="#263238"/>
<path d="M141.274 345.088C141.175 345.03 141.274 344.657 141.531 344.259C141.788 343.861 142.137 343.695 142.22 343.778C142.303 343.861 142.128 344.176 141.88 344.516C141.631 344.856 141.382 345.146 141.274 345.088Z" fill="#263238"/>
<path d="M142.087 345.552C141.979 345.552 142.029 345.088 142.286 344.648C142.543 344.209 142.866 343.943 142.957 344.01C143.049 344.076 142.891 344.449 142.659 344.839C142.427 345.229 142.203 345.594 142.087 345.552Z" fill="#263238"/>
<path d="M132.102 346.365C132.053 346.365 131.87 346.216 131.588 345.901C131.254 345.495 130.882 345.123 130.477 344.789C130.079 344.471 129.604 344.262 129.1 344.184C128.719 344.134 128.462 344.184 128.437 344.134C128.412 344.084 128.652 343.91 129.109 343.877C129.71 343.864 130.298 344.064 130.767 344.441C131.209 344.797 131.581 345.233 131.862 345.726C132.053 346.091 132.152 346.332 132.102 346.365Z" fill="#263238"/>
<path d="M141.316 343.753C141.374 343.852 141.158 344.101 140.793 344.233C140.428 344.366 140.105 344.316 140.088 344.233C140.072 344.151 140.329 343.976 140.644 343.86C140.959 343.744 141.249 343.653 141.316 343.753Z" fill="#263238"/>
<path d="M141.133 343.064C141.133 343.189 140.801 343.288 140.37 343.296C139.939 343.305 139.607 343.205 139.615 343.089C139.624 342.973 139.955 342.865 140.37 342.857C140.785 342.849 141.133 342.948 141.133 343.064Z" fill="#263238"/>
<path d="M187.889 133.079C187.557 132.739 186.736 132.905 186.736 132.905C186.819 132.427 186.819 131.939 186.736 131.462C186.587 130.997 185.542 131.088 185.542 131.088C185.494 130.697 185.494 130.302 185.542 129.911C185.55 129.824 185.532 129.737 185.489 129.661C185.446 129.586 185.38 129.525 185.302 129.488C184.807 129.286 184.276 129.19 183.742 129.206C183.104 128.75 185.691 125.126 186.653 123.965C187.615 122.804 187.441 121.9 186.587 121.9C185.998 121.9 182.98 125.383 182.051 126.552C181.122 127.722 178.659 130.972 178.576 128.377C178.493 125.781 177.448 123.824 176.793 123.492C176.138 123.16 175.441 123.94 175.798 124.661C176.111 125.481 176.307 126.341 176.378 127.216C176.468 127.912 176.438 128.619 176.287 129.305C176.012 130.582 175.638 131.836 175.168 133.054H175.101C175.101 133.054 157.006 150.411 155.696 151.647C154.526 152.758 131.008 150.328 126.289 149.831C124.686 149.596 123.066 149.485 121.446 149.499C119.398 149.59 119.033 149.88 116.993 149.905C111.841 149.962 106.7 150.414 101.617 151.257C99.3159 151.648 97.166 152.664 95.4023 154.194C93.6386 155.723 92.3289 157.708 91.6162 159.931C86.8643 174.776 76.1001 209.913 74.201 229.65C72.7659 232.252 71.4704 234.929 70.3199 237.669C68.9847 241.302 69.3082 241.426 69.756 241.509C70.9667 241.733 72.3434 235.215 72.8575 236.79C73.3717 238.366 70.2453 244.561 71.5141 244.743C73.1727 244.975 74.4912 238.109 74.6488 237.562C74.8064 237.014 75.6274 237.188 75.4781 237.703C75.2376 238.432 72.9073 246.17 74.5327 246.418C75.4283 246.551 75.5279 244.917 75.5279 244.917C75.5279 244.917 77.1865 237.512 77.9411 237.661C78.6958 237.81 77.8913 242.181 77.5099 243.64C77.1284 245.1 77.6591 245.838 78.4387 245.481C78.9694 245.233 80.2383 240.796 80.5866 239.353C80.9349 237.91 81.8056 233.913 82.9749 236.226C84.1442 238.54 85.9189 239.884 86.6487 239.917C86.8131 239.898 86.9681 239.83 87.0938 239.722C87.2194 239.614 87.3099 239.472 87.3536 239.312C87.3973 239.152 87.3922 238.983 87.339 238.826C87.2858 238.67 87.1869 238.532 87.055 238.432C86.4274 237.819 85.8886 237.121 85.4545 236.359C85.0677 235.765 84.787 235.109 84.6252 234.419C84.291 233.043 84.0965 231.637 84.0447 230.222L83.912 229.393C85.7696 220.196 91.1186 193.203 98.8393 175.962L102.007 182.48L103.384 187.306L94.9416 208.146L130.95 207.674L125.576 186.991L132.102 165.43C139.16 165.587 157.28 165.852 160.298 164.484C164.096 162.826 183.742 138.013 183.742 138.013C185.023 137.018 186.249 135.955 187.416 134.829C187.416 134.829 188.61 133.825 187.889 133.079Z" fill="#FFBE9D"/>
<path d="M93.3576 192.747C94.4025 189.181 99.768 171.55 99.768 171.55C99.768 171.55 102.405 185.921 101.709 187.655C101.068 189.138 100.311 190.569 99.4446 191.934C93.3576 201.197 94.1537 205.833 94.1537 205.833L130.933 204.713C131.016 199.572 127.972 187.613 127.342 185.706C126.712 183.798 128.81 177.554 128.81 177.554C128.81 177.554 132.956 173.333 132.807 171.16C132.728 169.208 132.487 167.267 132.086 165.355L154.477 166.184L153.772 151.008L121.612 147.791C120.492 150.95 110.366 149.399 110.366 149.399C99.4363 149.764 98.7563 151.771 94.2117 155.304C89.6672 158.837 82.1455 189.156 82.1455 189.156L93.3576 192.747Z" fill="#6897A4"/>
<path d="M115.101 189.155C114.464 189.269 113.815 189.303 113.169 189.255C111.967 189.255 110.316 189.172 108.5 188.99C106.684 188.807 105.042 188.55 103.873 188.318C103.228 188.235 102.596 188.073 101.99 187.837C102.639 187.837 103.286 187.898 103.922 188.019C105.1 188.169 106.734 188.376 108.542 188.558C110.35 188.741 111.992 188.865 113.177 188.948C113.824 188.956 114.468 189.026 115.101 189.155Z" fill="#263238"/>
<path d="M117.623 186.029C116.985 186.342 116.311 186.573 115.616 186.718C112.307 187.587 108.894 187.992 105.474 187.92C104.766 187.943 104.058 187.876 103.367 187.721C104.066 187.633 104.77 187.597 105.474 187.613C106.776 187.572 108.567 187.481 110.541 187.248C112.514 187.016 114.272 186.684 115.516 186.419C116.207 186.235 116.912 186.104 117.623 186.029Z" fill="#263238"/>
<path d="M129.996 172.081C129.979 172.713 129.893 173.341 129.739 173.955C129.523 175.107 129.191 176.683 128.768 178.408C128.345 180.133 127.939 181.725 127.574 182.803C127.427 183.42 127.21 184.019 126.927 184.586C126.973 183.956 127.09 183.333 127.276 182.729C127.591 181.435 127.947 179.942 128.345 178.309C128.743 176.675 129.125 175.182 129.44 173.888C129.552 173.266 129.739 172.659 129.996 172.081Z" fill="#263238"/>
<path d="M93.7477 190.632C91.8292 190.336 89.9357 189.895 88.0836 189.313C86.1911 188.871 84.3339 188.289 82.5273 187.572C84.4449 187.873 86.338 188.314 88.1914 188.89C90.0844 189.331 91.9417 189.913 93.7477 190.632Z" fill="#263238"/>
<path d="M132.484 165.172C132.171 165.226 131.851 165.226 131.538 165.172C130.672 165.083 129.821 164.88 129.009 164.567C127.652 164.057 126.417 163.269 125.383 162.254C124.349 161.238 123.539 160.018 123.005 158.67C122.414 157.188 122.162 155.593 122.267 154.001C122.304 152.688 122.696 151.41 123.403 150.303C123.9 149.557 124.642 149.008 125.501 148.752C125.73 148.689 125.968 148.658 126.206 148.661C126.372 148.661 126.455 148.661 126.455 148.661C126.455 148.661 126.106 148.661 125.551 148.885C124.763 149.176 124.094 149.722 123.652 150.436C122.524 152.21 122.209 155.453 123.411 158.48C123.971 159.907 124.847 161.189 125.974 162.228C126.897 163.079 127.96 163.763 129.117 164.252C130.202 164.68 131.331 164.989 132.484 165.172Z" fill="#263238"/>
<path d="M151.814 165.885C151.607 163.342 151.54 160.79 151.615 158.239C151.55 155.691 151.628 153.141 151.847 150.602C152.055 153.142 152.121 155.692 152.046 158.239C152.116 160.79 152.039 163.343 151.814 165.885Z" fill="#263238"/>
<path d="M121.396 148.719C121.487 146.87 121.678 144.78 121.678 144.78C121.678 144.78 126.256 144.274 126.529 139.547C126.803 134.82 126.529 123.915 126.529 123.915L118.236 119.669L109.031 126.909L110.449 150.544L118.892 151.083C119.537 151.1 120.163 150.862 120.632 150.419C121.102 149.976 121.377 149.364 121.396 148.719Z" fill="#FFBE9D"/>
<path d="M122.217 135.807C122.217 135.807 122.217 135.898 122.142 136.006C122.081 136.084 122.001 136.146 121.91 136.187C121.819 136.227 121.719 136.245 121.62 136.238C121.089 136.238 120.575 135.624 120.393 134.911C120.306 134.566 120.306 134.204 120.393 133.858C120.41 133.707 120.464 133.563 120.551 133.438C120.638 133.314 120.754 133.213 120.89 133.145C121.002 133.099 121.127 133.099 121.239 133.145C121.321 133.186 121.388 133.253 121.429 133.336C121.487 133.477 121.429 133.568 121.429 133.56C121.429 133.551 121.429 133.477 121.346 133.394C121.303 133.334 121.239 133.293 121.167 133.278C121.095 133.262 121.02 133.274 120.957 133.311C120.855 133.372 120.77 133.459 120.711 133.561C120.651 133.664 120.619 133.781 120.617 133.9C120.547 134.208 120.547 134.528 120.617 134.837C120.782 135.484 121.23 136.006 121.628 136.056C121.706 136.066 121.785 136.061 121.861 136.039C121.937 136.018 122.007 135.981 122.068 135.931C122.167 135.865 122.201 135.799 122.217 135.807Z" fill="#EB996E"/>
<path d="M129.374 121.361C128.735 119.188 126.422 118.11 124.315 117.513C121.106 116.601 117.639 116.203 114.505 117.355C111.37 118.508 107.605 120.531 107.605 123.99C105.756 123.84 104.694 125.457 103.964 127.464C103.498 128.687 103.218 129.973 103.135 131.279C102.903 135.807 101.634 142.06 98.6983 145.377C97.0397 147.226 94.7426 148.504 93.7972 150.809C92.9679 152.808 93.3991 155.179 92.6279 157.203C91.9395 158.986 90.4219 160.255 89.3107 161.805C88.1785 163.565 87.5123 165.583 87.3745 167.67C87.2366 169.758 87.6318 171.846 88.5229 173.739C89.4203 175.583 90.6838 177.226 92.2364 178.566C93.7891 179.906 95.5983 180.916 97.5539 181.534C101.428 182.713 105.558 182.753 109.454 181.65C112.378 180.951 115.106 179.599 117.432 177.695C119.812 175.751 121.447 173.044 122.06 170.032C122.648 166.649 121.703 163.207 120.998 159.84C118.792 149.2 119.422 148.645 122.209 138.768C122.275 138.594 122.308 138.411 122.358 138.237C122.408 138.063 122.433 137.98 122.466 137.847C122.545 137.457 122.587 137.06 122.59 136.661C122.183 136.813 121.742 136.845 121.317 136.754C120.892 136.662 120.503 136.452 120.194 136.147C119.884 135.822 119.668 135.419 119.569 134.981C119.469 134.543 119.49 134.086 119.63 133.659C119.825 133.192 120.117 132.772 120.485 132.424C120.854 132.077 121.291 131.811 121.769 131.644C122.69 131.263 123.677 131.064 124.581 130.641C126.496 129.728 127.823 127.838 128.727 125.856C129.47 124.482 129.7 122.888 129.374 121.361Z" fill="#263238"/>
<path d="M122.548 136.031C122.724 136.29 122.868 136.568 122.98 136.86C123.228 137.383 123.56 138.121 123.925 138.975L123.991 139.132H123.817L122.988 139.207C122.416 139.207 121.935 139.315 121.371 139.306C121.322 139.295 121.276 139.272 121.239 139.239C121.201 139.205 121.172 139.163 121.155 139.116C121.131 139.04 121.131 138.959 121.155 138.884C121.174 138.772 121.199 138.661 121.23 138.552L121.379 137.963C121.454 137.57 121.571 137.187 121.727 136.819C121.712 137.219 121.654 137.617 121.553 138.004L121.437 138.593C121.396 138.792 121.321 139.099 121.437 139.074C121.852 139.074 122.441 138.983 122.988 138.95L123.817 138.875L123.709 139.058C123.353 138.228 123.054 137.449 122.88 136.91C122.727 136.635 122.616 136.338 122.548 136.031Z" fill="#6897A4"/>
<path d="M94.1541 205.832L130.933 204.713L146.939 267.192L143.995 338.859H124.548L126.928 268.718L112.705 225.221L114.895 341.638L95.2404 341.928L93.1755 232.503C93.0843 229.459 92.0891 222.601 92.4623 219.582L94.1541 205.832Z" fill="#263238"/>
<path d="M117.598 226.109C116.996 226.147 116.391 226.111 115.798 226.001C114.687 225.868 113.169 225.636 111.502 225.304C109.835 224.973 108.343 224.591 107.265 224.284C106.688 224.158 106.131 223.957 105.606 223.687C105.606 223.563 108.309 224.21 111.627 224.882C114.944 225.553 117.614 225.984 117.598 226.109Z" fill="#455A64"/>
<path d="M143.795 334.929C143.795 335.045 139.392 335.145 133.96 335.145C128.528 335.145 124.116 335.045 124.116 334.929C124.116 334.813 128.52 334.713 133.96 334.713C139.4 334.713 143.795 334.805 143.795 334.929Z" fill="#455A64"/>
<path d="M114.72 338.611C114.72 338.735 110.441 338.826 105.167 338.826C99.8925 338.826 95.6216 338.735 95.6216 338.611C95.6216 338.486 99.9007 338.395 105.167 338.395C110.433 338.395 114.72 338.495 114.72 338.611Z" fill="#455A64"/>
<path d="M112.182 338.313C112.066 338.313 111.552 312.878 111.03 281.506C110.507 250.134 110.2 224.683 110.308 224.683C110.416 224.683 110.947 250.109 111.461 281.498C111.975 312.886 112.307 338.313 112.182 338.313Z" fill="#455A64"/>
<path d="M141.183 334.929C141.174 334.816 141.174 334.702 141.183 334.589V333.594C141.183 332.698 141.25 331.413 141.299 329.779C141.415 326.462 141.581 321.643 141.789 315.739C142.236 303.863 142.867 287.493 143.555 269.423C143.555 269.249 143.555 269.083 143.555 268.934V268.992C139.201 251.576 135.262 235.77 132.401 224.334L129.084 210.808C128.702 209.224 128.412 207.989 128.205 207.126C128.105 206.72 128.039 206.405 127.981 206.164C127.949 206.056 127.929 205.945 127.923 205.833C127.966 205.937 127.999 206.045 128.022 206.156C128.089 206.388 128.172 206.703 128.288 207.101C128.512 207.931 128.835 209.191 129.25 210.767C130.079 213.968 131.248 218.579 132.708 224.259C135.594 235.687 139.574 251.452 143.986 268.892V268.95C143.986 269.099 143.986 269.274 143.986 269.439C143.248 287.51 142.576 303.872 142.087 315.747C141.83 321.66 141.614 326.445 141.465 329.779C141.382 331.437 141.316 332.698 141.274 333.594C141.274 334.017 141.225 334.348 141.216 334.589C141.218 334.703 141.207 334.817 141.183 334.929Z" fill="#455A64"/>
<path d="M134.839 267.474C133.442 267.933 132.003 268.253 130.543 268.428C128.752 268.735 127.226 268.95 126.538 268.983V268.818C126.761 268.884 126.878 268.925 126.878 268.959C126.878 268.992 126.737 268.959 126.504 268.959H126.007L126.504 268.809C127.151 268.619 128.677 268.303 130.468 267.98C131.905 267.668 133.369 267.499 134.839 267.474Z" fill="#455A64"/>
<path d="M134.499 269.854C133.205 269.913 131.909 269.855 130.626 269.68C129.33 269.654 128.04 269.512 126.77 269.257C129.361 269.046 131.97 269.247 134.499 269.854Z" fill="#455A64"/>
<path opacity="0.2" d="M93.9961 207.151C94.4317 207.71 94.9803 208.172 95.6062 208.504C96.2321 208.837 96.9211 209.035 97.6284 209.083C99.1097 209.259 100.608 209.231 102.082 209C111.577 207.947 121.636 206.977 130.933 204.713C118.9 205.385 106.187 205.161 94.1537 205.832L94.0293 206.861" fill="black"/>
<g opacity="0.2">
<path d="M106.394 224.11L113.178 250.432L112.705 225.222L106.394 224.11Z" fill="black"/>
</g>
</svg>
